<?xml version="1.0" encoding="UTF-8"?>
<svg id="_レイヤー_1" data-name="レイヤー 1" xmlns="http://www.w3.org/2000/svg" viewBox="0 0 333 61">
  <defs>
    <style>
      .cls-1 {
        fill: #0c4d98;
        stroke-width: 0px;
      }
    </style>
  </defs>
  <g>
    <path class="cls-1" d="m233.06,22.73c1.2-1,1.9-2.3,1.9-3.9,0-1.7-.7-3.2-2-4.3-1.2-1.1-3-1.6-5.1-1.6h-15.4c-.5,0-.9.4-.9.9v18.4c0,.5.4.9.9.9h15.2c5.3,0,8-1.9,8-5.7.1-2-.8-3.6-2.6-4.7Zm-2.8,5.6c-.6.4-1.4.5-2.5.5h-11.4v-11.6h11.8c2,0,2.2.9,2.2,1.7,0,.6-.2.9-.6,1.3-.4.4-1,.5-1.8.5h-3.2c-.4,0-.8.4-.8.8h0v2.7h0c0,.4.4.8.8.8h3.3c3,0,3,1.4,3,2s-.3,1-.8,1.3Z"/>
    <path class="cls-1" d="m259.76,28.83h-16v-4.1h10.4c.5,0,.9-.4.9-.9v-2.5c0-.5-.4-.9-.9-.9h-10.4v-3.2h15.4c.5,0,.9-.4.9-.9v-2.5c0-.5-.4-.9-.9-.9h-19.1c-.5,0-.9.4-.9.9v18.4c0,.5.4.9.9.9h19.7c.5,0,.9-.4.9-.9v-2.5c.1-.4-.4-.9-.9-.9Z"/>
    <path class="cls-1" d="m206.46,12.93h-2.8c-.5,0-.9.4-.9.9v11.7c0,.9,0,3.8-7,3.8s-7-2.9-7-3.8v-11.7c0-.5-.4-.9-.9-.9h-2.8c-.5,0-.9.4-.9.9v12.5c0,2.2,1.1,4.1,3.3,5.4,2.1,1.4,4.9,2,8.5,2s6.4-.7,8.5-2c2.2-1.4,3.3-3.2,3.3-5.4v-12.5c-.3-.5-.8-.9-1.3-.9Z"/>
    <path class="cls-1" d="m139.96,9.53h-3.5c-.6,0-1.2.3-1.5.7l-9.8,12.3c-.1.1-.2.1-.3.1s-.2-.1-.3-.1l-9.7-12.3c-.4-.4-1-.7-1.5-.7h-3.4c-.6,0-1.1.5-1.1,1.1v21.6c0,.6.5,1.1,1.1,1.1h2.6c.6,0,1.1-.5,1.1-1.1V15.53l7.8,9.9c.4.4.9.7,1.5.7h4c.6,0,1.2-.3,1.5-.7l7.8-9.9v16.7c0,.6.5,1.1,1.1,1.1h2.6c.6,0,1.1-.5,1.1-1.1V10.63c-.1-.6-.6-1.1-1.1-1.1Z"/>
    <path class="cls-1" d="m162.66,18.63c1.5-1.2,3.5-1.8,6.2-1.8,3,0,5.4.9,7.4,2.8h0c.1.1.2.2.5.3h.1l3.3-1.2c.2-.1.4-.4.4-.6,0-.3-.1-.4-.1-.5-3-3.5-7-5.2-11.7-5.2h0c-3.5,0-6.4.9-8.9,2.7-2.8,2-4.3,4.8-4.3,8h0c0,3.1,1.3,5.7,3.8,7.8,2.5,2,5.7,3,9.6,3h0c4.7,0,8.6-1.7,11.5-4.9.1-.1.1-.2.1-.4-.1-.4-.3-.4-.4-.5h0l-3-1.6c-.1-.1-.2-.1-.3-.1-.3,0-.4.2-.5.2-2,2-4.3,2.9-7.4,2.9-2.7,0-4.8-.6-6.3-1.7-1.5-1.2-2.2-2.6-2.2-4.6s.7-3.5,2.2-4.6Z"/>
    <path class="cls-1" d="m144.16,21.73v2.6c0,.6.5,1.1,1.1,1.1h5.9c.6,0,1.1-.5,1.1-1.1v-2.6c0-.6-.5-1.1-1.1-1.1h-5.9c-.6.1-1.1.6-1.1,1.1Z"/>
  </g>
  <g>
    <path class="cls-1" d="m300.26,12.93c0,.7.5,1.2,1.2,1.2h7.5c.7,0,.8.4.4.9l-10.1,10.1c-.4.4-1.2.4-1.7,0l-10.2-10.2c-.4-.4-.3-.9.4-.9h7.5c.7,0,1.2-.5,1.2-1.2v-2.1c0-.7-.5-1.2-1.2-1.2h-16.2c-.7,0-1.2.5-1.2,1.2v16.2c0,.7.5,1.2,1.2,1.2h2.2c.7,0,1.2-.5,1.2-1.2v-7.5c0-.7.4-.8.9-.4l8.2,8.2c.4.4,1.4.9,2,.9h9.6c.7,0,1.6-.4,2-.9l8.2-8.2c.4-.4.9-.3.9.4v7.5c0,.7.5,1.2,1.2,1.2h2.2c.7,0,1.2-.5,1.2-1.2V10.73c0-.7-.5-1.2-1.2-1.2h-16.2c-.7,0-1.2.5-1.2,1.2v2.2h0Z"/>
    <path class="cls-1" d="m314.16,40.63c0,.7-.4.8-.9.4l-8.2-8.2c-.4-.4-1.4-.9-2-.9h-9.6c-.7,0-1.6.4-2,.9l-8.2,8.2c-.4.4-.9.3-.9-.4v-7.5c0-.7-.5-1.2-1.2-1.2h-2.2c-.7,0-1.2.5-1.2,1.2v16.2c0,.7.5,1.2,1.2,1.2h16.2c.7,0,1.2-.5,1.2-1.2v-2.2c0-.7-.5-1.2-1.2-1.2h-7.5c-.7,0-.8-.4-.4-.9l10.1-10.1c.4-.4,1.2-.4,1.7,0l10.1,10.1c.4.4.3.9-.4.9h-7.5c-.7,0-1.2.5-1.2,1.2v2.2c0,.7.5,1.2,1.2,1.2h16.2c.7,0,1.2-.5,1.2-1.2v-16.1c0-.7-.5-1.2-1.2-1.2h-2.2c-.7,0-1.2.5-1.2,1.2v7.4h.1Z"/>
  </g>
</svg>