<?xml version="1.0" encoding="UTF-8"?>
<svg id="_レイヤー_1" data-name="レイヤー 1" xmlns="http://www.w3.org/2000/svg" viewBox="0 0 333 61">
  <defs>
    <style>
      .cls-1 {
        fill: #0c4d98;
        stroke-width: 0px;
      }
    </style>
  </defs>
  <path class="cls-1" d="m131.2,9.93c-3.9,0-7.2,1-9.8,3-3,2.3-4.6,5.3-4.6,9s1.5,6.8,4.5,9.1c2.6,2,5.9,3,9.9,3,2.8,0,5.3-.4,7.3-1.2,2-.9,3.9-2.2,5.5-4.1.1-.1.1-.3.1-.4s-.1-.3-.2-.4l-3.1-1.7c-.2-.1-.4-.1-.6.1-2.1,2.3-5,3.5-8.7,3.5-3,0-5.5-.7-7.3-2.2-1.8-1.4-2.6-3.2-2.6-5.6,0-2.2.9-4,2.7-5.5,1.7-1.4,4-2.2,6.9-2.2,3.8,0,6.8,1.2,8.8,3.4.1.1.4.2.5.1l3.2-1.2c.1-.1.4-.2.4-.4.1-.1.1-.4,0-.5-3-3.9-7.3-5.8-12.9-5.8Z"/>
  <path class="cls-1" d="m267.4,13.63h-2.6c-.6,0-1.1.5-1.1,1.1v14l-11.5-14.3c-.4-.4-1-.7-1.6-.7h-4.3c-.6,0-1.1.5-1.1,1.1v18c0,.6.5,1.1,1.1,1.1h2.6c.6,0,1.1-.5,1.1-1.1v-14.3l11.6,14.4c.4.4,1,.7,1.6.7h4.2c.6,0,1.1-.5,1.1-1.1V14.53c-.1-.4-.5-.9-1.1-.9Z"/>
  <path class="cls-1" d="m194.3,13.63h-2.6c-.6,0-1.1.5-1.1,1.1v14l-11.6-14.3c-.4-.4-1-.7-1.6-.7h-4.3c-.6,0-1.1.5-1.1,1.1v18c0,.6.5,1.1,1.1,1.1h2.6c.6,0,1.1-.5,1.1-1.1v-14.3l11.7,14.4c.4.4,1,.7,1.6.7h4.2c.6,0,1.1-.5,1.1-1.1V14.53c-.1-.4-.6-.9-1.1-.9Z"/>
  <path class="cls-1" d="m220.5,16.83v-2.2c0-.6-.6-1.1-1.2-1.1h-20.7c-.6,0-1.2.5-1.2,1.1v2.3c0,.6.6,1.1,1.2,1.1h7.8v14.7c0,.6.5,1.1,1.1,1.1h2.6c.6,0,1.1-.5,1.1-1.1v-14.8h8.1c.7,0,1.2-.5,1.2-1.1Z"/>
  <path class="cls-1" d="m168.9,29.43h-15.6v-4h9.9c.6,0,1.2-.5,1.2-1.1v-2.2c0-.6-.6-1.1-1.2-1.1h-9.9v-3.2h14.8c.6,0,1.2-.5,1.2-1.1v-2.1c0-.6-.6-1.1-1.2-1.1h-18.3c-.3,0-.5.1-.7.2-.3.2-.5.5-.5.9v18c0,.6.5,1.1,1.1,1.1h19.2c.6,0,1.2-.5,1.2-1.1v-2.2c0-.6-.6-1-1.2-1Z"/>
  <path class="cls-1" d="m242.9,32.33l-9.7-17.9c-.3-.5-.9-.8-1.4-.9h-3.3c-.6,0-1.2.4-1.4.9l-9.9,18.2c-.1.1-.1.3-.1.4,0,.2.1.4.2.5s.4.1.5.1h3c.6,0,1.2-.4,1.4-.9l7.8-14.2.1-.1s.1,0,.1.1l7.7,14.3c.3.5.9.8,1.4.9h3c.2,0,.4,0,.6-.1q.1,0,.2-.1c.1,0,.2-.1.2-.3v-.1c.1-.1-.1-.5-.4-.8Z"/>
  <path class="cls-1" d="m324.9,10.13h-16.1c-.6,0-1.2.5-1.2,1.2v2.2c0,.6.5,1.2,1.2,1.2h7.5c.6,0,.8.4.4.9l-10.1,10.1c-.4.4-1.2.4-1.7,0l-10-10.2c-.4-.4-.3-.9.4-.9h7.5c.6,0,1.2-.5,1.2-1.2v-2.1c0-.6-.5-1.2-1.2-1.2h-16.1c-.6,0-1.2.5-1.2,1.2v16.1c0,.6.5,1.2,1.2,1.2h2.2c.6,0,1.2-.5,1.2-1.2v-7.4c0-.6.4-.8.9-.4l8.1,8.1c.4.4,1.4.9,2,.9h9.6c.6,0,1.6-.4,2-.9l8.1-8.1c.4-.4.9-.3.9.4v7.5c0,.6.5,1.2,1.2,1.2h2.2c.6,0,1.2-.5,1.2-1.2V11.33c-.2-.7-.7-1.2-1.4-1.2Z"/>
  <path class="cls-1" d="m324.9,32.43h-2.2c-.6,0-1.2.5-1.2,1.2v7.5c0,.6-.4.8-.9.4l-8.1-8.1c-.4-.4-1.4-.9-2-.9h-9.6c-.6,0-1.6.4-2,.9l-8.1,8.1c-.4.4-.9.3-.9-.4v-7.4c0-.6-.5-1.2-1.2-1.2h-2.2c-.6,0-1.2.5-1.2,1.2v16.1c0,.6.5,1.2,1.2,1.2h16.1c.6,0,1.2-.5,1.2-1.2v-2.2c0-.6-.5-1.2-1.2-1.2h-7.5c-.6,0-.8-.4-.4-.9l10.1-10.1c.4-.4,1.2-.4,1.7,0l10.1,10.1c.4.4.3.9-.4.9h-7.5c-.6,0-1.2.5-1.2,1.2v2.2c0,.6.5,1.2,1.2,1.2h16.1c.6,0,1.2-.5,1.2-1.2v-16.2c.1-.6-.4-1.2-1.1-1.2Z"/>
</svg>