<?xml version="1.0" encoding="UTF-8"?>
<svg id="_レイヤー_1" data-name="レイヤー 1" xmlns="http://www.w3.org/2000/svg" viewBox="0 0 333 61">
  <defs>
    <style>
      .cls-1 {
        fill: #040000;
        stroke-width: 0px;
      }
    </style>
  </defs>
  <g>
    <path class="cls-1" d="m156.29,54.03l-13.81-24,13.81-24h27.75l13.81,24-13.81,24h-27.75Zm24.7-5.27l10.89-18.73-10.89-18.73h-21.78l-10.89,18.73,10.89,18.73h21.78Z"/>
    <g>
      <path class="cls-1" d="m213.42,18.44h5.39l5.62,11.94,5.74-11.94h5.15v19.2h-4.21v-12.18l-5.85,12.18h-1.64l-5.85-12.29v12.29h-4.21l-.12-19.2h0Z"/>
      <path class="cls-1" d="m251.12,18.44h12.29v3.98h-7.96v3.86h7.38v3.86h-7.38v7.49h-4.33v-19.2h0Z"/>
      <path class="cls-1" d="m279.8,30.62c-.12,4.1-3.63,7.38-7.73,7.38-3.98-.12-7.26-3.28-7.26-7.38s2.93-7.26,7.49-7.26c3.98-.23,7.38,2.93,7.49,6.91,0,.12,0,.23,0,.35h0Zm-11,.12c0,1.87,1.52,3.4,3.4,3.51,1.87,0,3.4-1.52,3.51-3.4v-.12c0-1.87-1.52-3.4-3.4-3.51-1.87,0-3.4,1.52-3.51,3.51q0-.12,0,0Z"/>
      <path class="cls-1" d="m286,37.64h-4.1v-13.93h3.98v2.34c.7-1.64,2.22-2.58,3.98-2.69.23,0,.59,0,.82.12v3.86c-.35-.12-.7-.12-1.05-.12-2.58,0-3.51,1.99-3.51,3.98l-.12,6.44h0Z"/>
      <path class="cls-1" d="m302.51,29.45c-.35-1.4-1.64-2.34-3.16-2.22-1.87,0-3.4,1.64-3.4,3.51s1.52,3.4,3.4,3.4c1.4.12,2.69-.94,3.16-2.34h4.1c-.47,3.63-3.63,6.2-7.26,6.09-3.98.23-7.38-2.81-7.49-6.79v-.47c0-3.98,2.93-7.26,7.49-7.26,3.63-.12,6.79,2.46,7.26,6.09,0,0-4.1,0-4.1,0Z"/>
      <path class="cls-1" d="m322.77,33.08c-.82,2.93-3.4,4.8-7.02,4.8-3.86.12-7.26-2.93-7.38-6.79v-.47c0-3.98,3.16-7.26,7.14-7.26h.23c4.45,0,7.26,3.16,7.26,7.14v1.29h-10.65c.23,1.76,1.76,2.93,3.51,2.93,1.17.12,2.34-.47,2.93-1.52l3.98-.12h0Zm-10.19-4.1h6.56c-.47-1.4-1.76-2.34-3.28-2.22-1.52-.12-2.81.82-3.28,2.22h0Z"/>
    </g>
  </g>
  <rect class="cls-1" x="238.36" y="26.75" width="9.25" height="3.16"/>
</svg>