<?xml version="1.0" encoding="UTF-8"?>
<svg id="_レイヤー_1" data-name="レイヤー 1" xmlns="http://www.w3.org/2000/svg" viewBox="0 0 333 61">
  <defs>
    <style>
      .cls-1 {
        fill: #0c4d98;
        stroke-width: 0px;
      }
    </style>
  </defs>
  <path class="cls-1" d="m135.16,13.5h-4.5c-.6,0-1.2.3-1.5.8l-6.9,9.6c-.1.1-.2.1-.2.1q-.1,0-.2-.1l-6.9-9.6c-.3-.4-.9-.8-1.5-.8h-4.5c-.6,0-1.1.5-1.1,1.1v18.4c0,.6.5,1.1,1.1,1.1h2.7c.6,0,1.1-.5,1.1-1.1v-14.3l6,8.3c.3.4.9.7,1.5.8h3.6c.6,0,1.2-.3,1.5-.8l6-8.3v14.2c0,.6.5,1.1,1.1,1.1h2.7c.6,0,1.1-.5,1.1-1.1V14.5c0-.6-.5-1-1.1-1Z"/>
  <path class="cls-1" d="m210.06,18.6l.1-.1s.1,0,.1.1l7.9,14.6c.3.5.9.8,1.4.9h3.1c.2,0,.4,0,.6-.1q.1,0,.2-.1c.1,0,.2-.1.2-.3v-.1c-.1-.1-.3-.5-.5-.9l-9.9-18.3c-.3-.5-.9-.8-1.4-.8h-3.3c-.6,0-1.1.4-1.4.8l-10.1,18.6c-.1.1-.1.3-.1.4,0,.2.1.4.2.5s.3.2.5.2h3.1c.6,0,1.1-.4,1.4-.9l7.9-14.5Z"/>
  <path class="cls-1" d="m172.26,13.5c-.6,0-1.1.5-1.1,1.1v18.4c0,.6.5,1.1,1.1,1.1h2.7c.6,0,1.1-.5,1.1-1.1v-14.6c0-.3.2-.5.5-.5h10.1c1.2,0,2,.2,2.5.6.5.4.7.9.7,1.7s-.2,1.3-.7,1.6c-.4.3-1.2.5-2.3.6l-5,.2,7.6,10.7h0c.3.4.9.8,1.5.8h3.3c.2,0,.4,0,.5-.1q.1,0,.2-.1c.1,0,.2-.1.2-.3q0-.1-.1-.2c-.1-.1-.3-.5-.6-.8l-2-2.8-2.4-3.4c2.9-.9,4.5-3.1,4.5-6.2h0c0-2-.7-3.7-2-4.9s-3.1-1.8-5.3-1.8h0s-15,0-15,0Z"/>
  <path class="cls-1" d="m102.76,29.6h-19.3v-5.9h12.5c.5,0,.9-.4.9-.9v-2.5c0-.5-.4-.9-.9-.9h-12.5v-5h18.4c.5,0,.9-.4.9-.9v-2.6c0-.5-.4-.9-.9-.9h-22.2c-.5,0-.9.4-.9.9v22.1c0,.5.4.9.9.9h23.1c.5,0,.9-.4.9-.9v-2.5c.1-.4-.3-.9-.9-.9Z"/>
  <path class="cls-1" d="m230.16,13.5h-2.9c-.5,0-.9.4-.9.9v18.7c0,.5.4.9.9.9h2.9c.5,0,.9-.4.9-.9V14.4c.1-.5-.3-.9-.9-.9Z"/>
  <path class="cls-1" d="m259.66,13.5h-2.9c-.5,0-.9.4-.9.9v14.6l-12.3-15.2c-.2-.2-.5-.4-.7-.4h-5c-.5,0-.9.4-.9.9v18.7c0,.5.4.9.9.9h2.9c.5,0,.9-.4.9-.9v-14.5l12.3,15.1c.2.2.5.4.7.4h5c.5,0,.9-.4.9-.9V14.4c0-.5-.4-.9-.9-.9Z"/>
  <path class="cls-1" d="m163.86,23.4c1.3-1.1,1.9-2.4,1.9-4,0-1.8-.7-3.2-1.9-4.3-1.3-1.1-3-1.6-5.2-1.6h-15.6c-.5,0-.9.4-.9.9v18.7c0,.5.4.9.9.9h15.4c5.4,0,8.1-1.9,8.1-5.8,0-2.1-.9-3.7-2.7-4.8Zm-2.8,5.7c-.6.4-1.5.5-2.6.5h-11.6v-11.7h12c2,0,2.3.9,2.3,1.7,0,.6-.2,1-.6,1.3s-1,.5-1.8.5h-3.3c-.5,0-.8.4-.8.8h0v2.8h0c0,.5.4.8.8.8h3.4c3,0,3,1.5,3,2-.1.6-.3,1-.8,1.3Z"/>
  <g>
    <path class="cls-1" d="m299.96,13.4c0,.7.5,1.2,1.2,1.2h7.5c.7,0,.8.4.3.8l-10.1,10.1c-.5.5-1.2.5-1.7,0l-10-10.1c-.5-.5-.3-.8.3-.8h7.5c.7,0,1.2-.5,1.2-1.2v-2.2c0-.7-.5-1.2-1.2-1.2h-16.2c-.7,0-1.2.5-1.2,1.2v16.2c0,.7.5,1.2,1.2,1.2h2.2c.7,0,1.2-.5,1.2-1.2v-7.5c0-.7.4-.8.8-.3l8.2,8.2c.5.5,1.4.8,2,.8h9.6c.7,0,1.6-.4,2-.8l8.2-8.2c.5-.5.8-.3.8.3v7.5c0,.7.5,1.2,1.2,1.2h2.2c.7,0,1.2-.5,1.2-1.2V11.2c0-.7-.5-1.2-1.2-1.2h-16.2c-.7,0-1.2.5-1.2,1.2v2.2h.2Z"/>
    <path class="cls-1" d="m313.96,41.1c0,.7-.4.8-.8.4l-8.2-8.2c-.5-.5-1.4-.8-2-.8h-9.6c-.7,0-1.6.4-2,.8l-8.2,8.2c-.5.5-.8.3-.8-.4v-7.5c0-.7-.5-1.2-1.2-1.2h-2.2c-.7,0-1.2.5-1.2,1.2v16.2c0,.7.5,1.2,1.2,1.2h16.2c.7,0,1.2-.5,1.2-1.2v-2.2c0-.7-.5-1.2-1.2-1.2h-7.5c-.7,0-.8-.4-.3-.8l10.1-10.1c.5-.5,1.2-.5,1.7,0l10.1,10.1c.5.5.3.8-.3.8h-7.5c-.7,0-1.2.5-1.2,1.2v2.2c0,.7.5,1.2,1.2,1.2h16.2c.7,0,1.2-.5,1.2-1.2v-16.2c0-.7-.5-1.2-1.2-1.2h-2.2c-.7,0-1.2.5-1.2,1.2v7.5h-.3Z"/>
  </g>
</svg>