<?xml version="1.0" encoding="UTF-8"?>
<svg id="_レイヤー_1" data-name="レイヤー 1" xmlns="http://www.w3.org/2000/svg" viewBox="0 0 333 61">
  <defs>
    <style>
      .cls-1 {
        fill: #183827;
        stroke-width: 0px;
      }
    </style>
  </defs>
  <path class="cls-1" d="m247.56,30.88c.7-.7,4.7-5,4.7-10.4,0-6.4-5.2-10.5-12.6-10.5-8.3,0-12.3,5.1-12.3,10.4,0,3.6,2,6.1,4.8,8-1.1.7-6.3,4.5-6.3,10.8,0,6.8,6,11.8,13.9,11.8s13.5-5.5,13.5-11.6c-.1-3.9-2.5-6.7-5.7-8.5Zm-8-16.1c4.2,0,7.1,2.4,7.1,6.2s-2.9,7-3.5,7.7c-5.2-2.4-10.6-3.9-10.6-8.3.2-2.9,2.7-5.6,7-5.6Zm0,31.4c-4.3,0-8.2-3-8.2-7.6s3.6-7,4.7-7.8c6.2,2.9,11.4,4.1,11.4,8.7.1,3.8-3.8,6.7-7.9,6.7Zm32.1-36.2c-10.6,0-14,9.1-14,20.4s3.5,20.5,14,20.5,14-9.1,14-20.5-3.5-20.4-14-20.4Zm0,36c-6.5,0-8.3-6.8-8.3-15.5s1.7-15.5,8.3-15.5,8.3,6.8,8.3,15.5-1.9,15.5-8.3,15.5Zm33.2-36c-10.6,0-14,9.1-14,20.4s3.5,20.5,14,20.5,14-9.1,14-20.5-3.5-20.4-14-20.4Zm0,36c-6.5,0-8.3-6.8-8.3-15.5s1.7-15.5,8.3-15.5,8.3,6.8,8.3,15.5c-.1,8.7-1.9,15.5-8.3,15.5Z"/>
  <path class="cls-1" d="m200.46,30.48c5.5,0,7.7,4.8,8.3,11.4h6v-22.8h-5.7v5.7h-5.7v-5.7h-5.7v5.7h-5.8v-5.7h-5.7v22.9h6c.6-6.7,2.7-11.5,8.3-11.5Z"/>
</svg>