<?xml version="1.0" encoding="UTF-8"?>
<svg id="_レイヤー_1" data-name="レイヤー 1" xmlns="http://www.w3.org/2000/svg" viewBox="0 0 333 61">
  <defs>
    <style>
      .cls-1 {
        fill: #0c4d98;
        stroke-width: 0px;
      }
    </style>
  </defs>
  <path class="cls-1" d="m321.7,10.3h-15.8c-.6,0-1.1.5-1.1,1.1v2.2c0,.6.5,1.1,1.1,1.1h7.3c.6,0,.7.4.4.9l-9.9,10c-.5.5-1.2.5-1.6,0l-9.9-10c-.5-.5-.2-.9.4-.9h7.3c.6,0,1.1-.5,1.1-1.1v-2.1c0-.6-.5-1.1-1.1-1.1h-15.8c-.6,0-1.1.5-1.1,1.1v16c0,.6.5,1.1,1.1,1.1h2.2c.6,0,1.1-.5,1.1-1.1v-7.4c0-.6.4-.7.9-.4l8,8.1c.5.5,1.4.9,2,.9h9.4c.6,0,1.5-.4,2-.9l8-8.1c.5-.5.9-.2.9.4v7.4c0,.6.5,1.1,1.1,1.1h2.2c.6,0,1.1-.5,1.1-1.1V11.5c-.2-.7-.7-1.2-1.3-1.2h0Z"/>
  <path class="cls-1" d="m321.7,32.6h-2.2c-.6,0-1.1.5-1.1,1.1v7.5c0,.6-.4.7-.9.4l-8-8.1c-.5-.5-1.4-.9-2-.9h-9.4c-.6,0-1.5.4-2,.9l-8,8.1c-.5.5-.9.2-.9-.4v-7.4c0-.6-.5-1.1-1.1-1.1h-2.2c-.6,0-1.1.5-1.1,1.1v16c0,.6.5,1.1,1.1,1.1h15.8c.6,0,1.1-.5,1.1-1.1v-2.2c0-.6-.5-1.1-1.1-1.1h-7.3c-.6,0-.7-.4-.4-.9l9.9-10c.5-.5,1.2-.5,1.6,0l9.9,10c.5.5.2.9-.4.9h-7.3c-.6,0-1.1.5-1.1,1.1v2.2c0,.6.5,1.1,1.1,1.1h15.8c.6,0,1.1-.5,1.1-1.1v-16c.2-.7-.3-1.2-.9-1.2h0Z"/>
  <path class="cls-1" d="m191.2,40.8h1.2c.2,0,.5.2.5.5v8.9c0,.2-.2.5-.5.5h-1.2c-.2,0-.5-.2-.5-.5v-8.9c-.2-.2.1-.5.5-.5h0Z"/>
  <path class="cls-1" d="m159.5,39h1.4c.2,0,.5.2.5.5v10.8c0,.2-.2.5-.5.5h-1.4c-.2,0-.5-.2-.5-.5v-10.8c0-.2.2-.5.5-.5Z"/>
  <path class="cls-1" d="m175.1,40.8h-1.4c-.2,0-.5.2-.5.5v7l-5.9-7.4c-.1-.1-.2-.1-.4-.1h-2.3c-.2,0-.5.2-.5.5v9c0,.2.2.5.5.5h1.4c.2,0,.5-.2.5-.5v-7l5.9,7.4c.1.1.2.1.4.1h2.3c.2,0,.5-.2.5-.5v-9c-.1-.2-.2-.5-.5-.5Z"/>
  <path class="cls-1" d="m187.6,45.3c-.7-.4-1.7-.7-3.3-.9-1.1-.1-2.1-.2-3.2-.2-1-.1-1-.5-1-.6,0-.7,1.9-.9,2.8-.9,1.4,0,2.6.2,3.7.9.1.1.4,0,.5-.1l.9-.9c.1-.1.1-.2.1-.4,0-.1-.1-.2-.2-.4-1.4-.9-3-1.2-5.1-1.2-1.6,0-2.8.2-3.8.9-1,.6-1.5,1.4-1.5,2.3s.2,1.5.9,1.9c.6.4,1.5.6,2.7.7.2,0,1.1.1,2.3.1,1,0,1.5.1,1.7.2.6.1.9.5.9.9,0,.1,0,.5-.7.9-.5.2-1.4.4-2.3.4-1.7,0-3.2-.4-4.4-1.2-.2-.1-.5-.1-.6.1l-.7,1c-.1.1-.1.2-.1.4s.1.2.1.2c1.5,1,3.3,1.6,5.7,1.6,1.7,0,3.1-.2,4.1-.9,1-.6,1.5-1.5,1.5-2.5.2-1.1-.2-1.8-1-2.3h0Z"/>
  <path class="cls-1" d="m207.2,45.2h-5.9c-.2,0-.5.2-.5.5v1.2c0,.2.2.5.5.5h3.6c-.6,1.1-1.7,1.6-3.5,1.6-1.2,0-2.2-.2-3-.9-.7-.6-1.1-1.2-1.1-2.2s.4-1.6,1.1-2.2c.7-.6,1.7-.9,2.8-.9,1.2,0,2.3.4,3.2,1.2.1.1.4.1.5.1l1.2-.6c.1-.1.2-.1.2-.4,0-.1,0-.2-.1-.4-1.4-1.4-3.1-2-5.1-2-1.7,0-3.2.5-4.3,1.2-1.4,1-2,2.2-2,3.9,0,1.6.6,2.8,2,3.9,1.1.9,2.6,1.2,4.2,1.2,1.9,0,3.3-.5,4.6-1.5,1.1-1,1.7-2.2,1.7-3.9v-.1c.3-.1.1-.2-.1-.2Z"/>
  <path class="cls-1" d="m220.8,40.8h-1.4c-.2,0-.5.2-.5.5v3.2h-6.8v-3.2c0-.2-.2-.5-.5-.5h-1.2c-.2,0-.5.2-.5.5v9c0,.2.2.5.5.5h1.4c.2,0,.5-.2.5-.5v-3.7h6.8v3.7c0,.2.2.5.5.5h1.4c.2,0,.5-.2.5-.5v-9c-.2-.2-.5-.5-.7-.5Z"/>
  <path class="cls-1" d="m233.5,40.8h-10.2c-.2,0-.5.2-.5.5v1.2c0,.2.2.5.5.5h4.1v7.4c0,.2.2.5.5.5h1.4c.2,0,.5-.2.5-.5v-7.4h4.1c.2,0,.5-.2.5-.5v-1.2c-.4-.2-.7-.5-.9-.5h0Z"/>
  <path class="cls-1" d="m176.5,21.7h1.5c.2,0,.5-.1.7-.4l3.8-7.1c0-.1.1-.1.1-.1l.1.1,3.8,7.1c.1.2.4.4.7.4h1.8s.1,0,.1-.1v-.1l-.2-.4-5.1-9c-.1-.2-.4-.4-.7-.4h-1.6c-.2,0-.5.1-.7.4l-4.8,9v.2q0,.1.1.2c.3.2.4.2.4.2h0Z"/>
  <path class="cls-1" d="m219.2,20.7c1.1.9,2.6,1.2,4.3,1.2h0c1.7,0,3.2-.4,4.3-1.2,1.4-1,2.1-2.3,2.1-4h0c0-1.6-.7-3-2.1-4-1.2-.9-2.6-1.4-4.3-1.4s-3.1.5-4.3,1.3c-1.4,1-2.1,2.3-2.1,4h0c0,1.7.7,3,2.1,4.1h0Zm1.3-6.2c.7-.6,1.7-.9,3-.9s2.2.2,3,.9c.7.6,1.1,1.2,1.1,2.2s-.4,1.6-1.1,2.2c-.7.6-1.7.9-3,.9s-2.2-.2-3-.9c-.7-.6-1.1-1.2-1.1-2.2,0-.9.4-1.6,1.1-2.2h0Z"/>
  <path class="cls-1" d="m262.8,20c0-.2-.2-.5-.5-.5h-6.4c-.1,0-.2-.1-.2-.2v-7c0-.2-.2-.5-.5-.5h-1.2c-.2,0-.5.2-.5.5v8.9c0,.2.2.5.5.5h8.5c.6,0,.5-.5.5-.5v-1.1l-.2-.1h0Z"/>
  <path class="cls-1" d="m273.8,20c0-.2-.2-.5-.5-.5h-6.4c-.1,0-.2-.1-.2-.2v-7c0-.2-.2-.5-.5-.5h-1.2c-.2,0-.5.2-.5.5v8.9c0,.2.2.5.5.5h8.5c.6,0,.5-.5.5-.5v-1.1l-.2-.1h0Z"/>
  <path class="cls-1" d="m191.5,20.5c1.2,1,2.7,1.5,4.7,1.5h0c2.3,0,4.2-.9,5.6-2.3l.1-.1c0-.1-.1-.2-.1-.2h0l-1.5-.7h-.1c-.1,0-.2.1-.2.1-1,1-2.1,1.4-3.6,1.4-1.4,0-2.3-.2-3.1-.9s-1.1-1.2-1.1-2.2c0-.9.4-1.6,1.1-2.2.7-.6,1.7-.9,3.1-.9,1.5,0,2.6.5,3.6,1.4h0s.1.1.2.1h.1l1.6-.5c.1,0,.1-.1.1-.2s-.1-.2-.1-.2c-1.5-1.7-3.3-2.6-5.7-2.6h0c-1.7,0-3.1.4-4.3,1.2-1.4,1-2.1,2.3-2.1,3.9h0c0,1.1.6,2.3,1.7,3.4h0Z"/>
  <path class="cls-1" d="m204.6,21.7h1.2c.2,0,.5-.2.5-.5v-7c0-.1.1-.2.2-.2h4.8c.6,0,1,.1,1.1.2.2.1.4.4.4.9,0,.4-.1.6-.4.7-.2.1-.6.2-1.1.2l-2.2.1,3.6,5.2c.1.2.5.4.7.4h1.9s.1,0,.1-.1v-.1s-.1-.2-.2-.4l-1-1.4-1.1-1.6c1.4-.4,2.2-1.5,2.2-3h0c0-1-.4-1.7-1-2.3s-1.5-.9-2.5-.9h-7.3c-.2,0-.5.2-.5.5v8.9c.1.2.2.4.6.4h0Z"/>
  <path class="cls-1" d="m159.5,21.7h1.2c.2,0,.5-.2.5-.5v-8.3l3.8,4.9c.1.2.5.4.7.4h2c.2,0,.5-.1.7-.4l3.8-4.9v8.2c0,.2.2.5.5.5h1.2c.2,0,.5-.2.5-.5v-10.6c0-.2-.2-.5-.5-.5h-1.7c-.2,0-.5.1-.7.4l-4.7,6-.1.1s-.1,0-.1-.1l-4.7-6c-.1-.2-.5-.4-.7-.4h-1.7c-.2,0-.5.2-.5.5v10.7c0,.3.2.5.5.5h0Z"/>
  <path class="cls-1" d="m245.1,11.6h-2.1c-.2,0-.5.1-.7.4l-3.3,4.7-.1.1s-.1,0-.1-.1l-3.3-4.7c-.1-.2-.5-.4-.7-.4h-2.1c-.2,0-.5.2-.5.5v9c0,.2.2.5.5.5h1.2c.2,0,.5-.2.5-.5v-6.8l2.8,4c.1.2.5.4.7.4h1.7c.2,0,.5-.1.7-.4l2.8-4v6.9c0,.2.2.5.5.5h1.2c.2,0,.5-.2.5-.5v-8.9c.3-.4,0-.7-.2-.7h0Z"/>
  <path class="cls-1" d="m250.1,11.6h-1.2c-.2,0-.5.2-.5.5v9c0,.2.2.5.5.5h1.2c.2,0,.5-.2.5-.5v-8.8c0-.4-.2-.7-.5-.7Z"/>
  <path class="cls-1" d="m160.8,35.2c1.2,1,3,1.5,4.8,1.5,1.4,0,2.6-.2,3.6-.6s1.9-1.1,2.7-2c0,0,.1-.1,0-.2q0-.1-.1-.1l-1.5-.9h-.2c-1,1.1-2.5,1.7-4.3,1.7-1.5,0-2.7-.4-3.6-1.1s-1.2-1.6-1.2-2.7.4-2,1.4-2.7c.9-.7,2.1-1.1,3.5-1.1,1.9,0,3.3.6,4.3,1.6q.1.1.2.1l1.6-.6c.1,0,.1-.1.1-.1v-.2c-1.5-1.9-3.6-2.8-6.4-2.8-1.9,0-3.6.5-4.8,1.5-1.5,1.1-2.2,2.6-2.2,4.5,0,1.6.6,3.1,2.1,4.2h0Z"/>
  <path class="cls-1" d="m188.4,26.3h1.4c.2,0,.5.2.5.5v9c0,.2-.2.5-.5.5h-1.4c-.2,0-.5-.2-.5-.5v-9c.2-.3.3-.5.5-.5Z"/>
  <path class="cls-1" d="m212.5,28.7h0l3.8,7.1c.1.2.4.4.7.4h1.8s.1,0,.1-.1v-.1s-.1-.2-.2-.4l-4.8-8.9c-.1-.2-.4-.4-.7-.4h-1.6c-.2,0-.5.1-.7.4l-4.8,9v.2q0,.1.1.2c.1,0,.1.1.2.1h1.5c.2,0,.5-.1.7-.4l3.9-7.1h0Z"/>
  <path class="cls-1" d="m182.9,36c0,.2.2.5.5.5h1.4c.2,0,.5-.2.5-.5v-9c0-.2-.2-.5-.5-.5h-1.5c-.2,0-.5.2-.5.5v3.2h-6.8v-3.2c0-.2-.2-.5-.5-.5h-1.4c-.2,0-.5.2-.5.5v9c0,.2.2.5.5.5h1.4c.2,0,.5-.2.5-.5v-3.7h6.8v3.7h.1Z"/>
  <path class="cls-1" d="m195.5,36v-7l5.7,7.1c.1.2.5.4.7.4h2.1c.2,0,.5-.2.5-.5v-9c0-.2-.2-.5-.5-.5h-1.2c-.2,0-.5.2-.5.5v7l-5.7-7.1c-.1-.2-.5-.4-.7-.4h-2.1c-.2,0-.5.2-.5.5v8.9c0,.2.2.5.5.5h1.2c.2.1.5-.2.5-.4h0Z"/>
</svg>