<?xml version="1.0" encoding="UTF-8"?>
<svg id="_レイヤー_1" data-name="レイヤー 1" xmlns="http://www.w3.org/2000/svg" viewBox="0 0 333 61">
  <defs>
    <style>
      .cls-1 {
        fill: #0c4d98;
        stroke-width: 0px;
      }
    </style>
  </defs>
  <g id="_レイヤー_2-2" data-name="レイヤー 2">
    <g id="_レイヤー_4" data-name="レイヤー 4">
      <path class="cls-1" d="m304.3,12.56c0,.7.5,1.2,1.2,1.2h7.5c.7,0,.8.4.3.8l-10.1,10.1c-.5.5-1.2.5-1.7,0l-10-10.1c-.5-.5-.3-.8.3-.8h7.6c.7,0,1.2-.5,1.2-1.2v-2.2c0-.7-.5-1.2-1.2-1.2h-16.2c-.7,0-1.2.5-1.2,1.2v16.2c0,.7.5,1.2,1.2,1.2h2.2c.7,0,1.2-.5,1.2-1.2v-7.5c0-.7.4-.8.8-.4l8.2,8.2c.6.5,1.3.8,2,.8h9.6c.8,0,1.5-.3,2-.8l8.2-8.2c.5-.5.8-.3.8.4v7.5c0,.7.5,1.2,1.2,1.2h2.2c.7,0,1.2-.5,1.2-1.2V10.36c0-.7-.5-1.2-1.2-1.2h-16.2c-.7,0-1.2.5-1.2,1.2l.1,2.2Z"/>
      <path class="cls-1" d="m318.2,40.16c0,.7-.4.8-.8.4l-8.2-8.1c-.6-.5-1.3-.8-2-.8h-9.7c-.8,0-1.5.3-2,.8l-8.2,8.2c-.5.5-.8.3-.8-.4v-7.5c0-.7-.5-1.2-1.2-1.2h-2.2c-.7,0-1.2.5-1.2,1.2v16.2c0,.7.5,1.2,1.2,1.2h16.2c.7,0,1.2-.5,1.2-1.2v-2.2c0-.7-.5-1.2-1.2-1.2h-7.5c-.7,0-.8-.4-.3-.8l10.1-10.1c.5-.5,1.2-.5,1.7,0l10.1,10.1c.5.5.3.8-.3.8h-7.5c-.7,0-1.2.5-1.2,1.2h0v2.2c0,.7.5,1.2,1.2,1.2h16.2c.7,0,1.2-.5,1.2-1.2h0v-16.3c0-.7-.5-1.2-1.2-1.2h-2.2c-.7,0-1.2.5-1.2,1.2l-.2,7.5Z"/>
      <path class="cls-1" d="m125.44,26.96l-7.8-14.4c-.2-.4-.6-.7-1.1-.7h-2.7c-.5,0-.9.3-1.1.7l-8,14.6c-.1.1-.1.2-.1.3,0,.2.1.3.2.4s.3.1.4.1h2.4c.5,0,.9-.3,1.1-.7l6.2-11.5.1-.1.1.1,6.2,11.5c.2.4.7.7,1.1.7h2.8q.1,0,.2-.1c.1-.1.2-.2.1-.4l-.1-.5Z"/>
      <path class="cls-1" d="m189.42,13.46h0c-4.3-2.9-9.9-2.9-14.2,0-2.1,1.4-3.4,3.8-3.4,6.4h0c0,2.6,1.2,5,3.4,6.5,2.1,1.4,4.6,2.2,7.1,2.1h0c2.5.1,5-.6,7.1-2.1,2.1-1.4,3.4-3.9,3.4-6.4h0c0-2.6-1.2-5-3.4-6.5Zm-2.3,10.2c-3,1.9-6.7,1.9-9.7,0-1.2-.9-1.8-2.2-1.8-3.7,0-1.4.7-2.8,1.8-3.6,2.9-1.9,6.7-1.9,9.6,0,1.2.8,1.8,2.2,1.8,3.6.1,1.4-.5,2.8-1.7,3.7Z"/>
      <path class="cls-1" d="m246.91,25.46c0-.5-.4-.8-.8-.9h-10.6c-.2,0-.4-.2-.4-.4v-11.4c0-.5-.4-.8-.8-.9h-2.1c-.5,0-.9.4-.9.9v14.5c0,.5.4.9.9.9h14c.4,0,.8-.3.8-.7v-.1l-.1-1.9Z"/>
      <path class="cls-1" d="m265.01,27.16v-1.8c0-.5-.4-.8-.8-.9h-10.6c-.2,0-.4-.2-.4-.4v-11.3c0-.5-.4-.8-.9-.9h-2.1c-.5,0-.8.4-.8.9v14.5c0,.5.4.9.9.9h14c.4,0,.8-.3.9-.7q-.2-.2-.2-.3Z"/>
      <path class="cls-1" d="m132.73,16.36c1.5-1,3.2-1.5,5-1.4,2.2-.1,4.3.7,5.9,2.2h0c.1.1.3.2.4.2h.1l2.6-.9c.2-.1.3-.3.3-.5,0-.1-.1-.3-.1-.4-2.3-2.8-5.8-4.3-9.4-4.2h0c-2.6-.1-5.1.7-7.1,2.2-2.1,1.4-3.4,3.8-3.4,6.4h0c0,2.4,1.1,4.7,3,6.2,2,1.6,4.6,2.4,7.7,2.4h0c3.5.1,6.9-1.3,9.2-4,.2-.2.1-.4,0-.6,0,0-.1-.1-.2-.1h0l-2.4-1.3c-.1,0-.2-.1-.2-.1-.1,0-.3.1-.4.2-1.6,1.6-3.7,2.4-5.9,2.3-1.8.1-3.6-.4-5.1-1.4-1.2-.8-1.8-2.2-1.8-3.7,0-1.4.7-2.7,1.8-3.5Z"/>
      <path class="cls-1" d="m168.83,26.96l-1.6-2.2-1.9-2.6c2.2-.6,3.7-2.6,3.6-4.9h0c.1-1.5-.5-2.9-1.6-3.9s-2.6-1.5-4.2-1.4h-12c-.5,0-.9.4-.9.9v14.6c0,.5.4.9.9.9h2.1c.5,0,.8-.4.9-.9v-11.7c0-.2.2-.4.4-.4h8c.7-.1,1.4.1,1.9.5.4.3.6.8.6,1.4,0,.5-.2.9-.5,1.3-.5.3-1.2.5-1.8.4l-3.9.1,6,8.4c.3.4.7.6,1.2.6h3q.1,0,.2-.1c.1,0,.1-.1.2-.2q0-.1-.1-.2l-.5-.6Z"/>
      <path class="cls-1" d="m101.14,9.16h-2.7c-.5,0-.9.2-1.2.6l-7.8,9.8c-.1.1-.2.2-.3.1l-.1-.1-7.7-9.8c-.4-.4-.8-.6-1.3-.6h-2.8c-.5,0-.8.4-.8.8h0v17.2c0,.5.4.8.8.9h2.1c.5,0,.8-.4.8-.9v-13.2l6.2,7.9c.3.4.7.6,1.2.6h3.2c.5,0,.9-.2,1.2-.6l6.3-7.9v13.3c0,.5.4.9.9.9h2.1c.5,0,.8-.4.8-.9V10.06c0-.5-.4-.9-.9-.9Z"/>
      <path class="cls-1" d="m217.82,11.86h-3.5c-.5,0-.9.2-1.2.6l-5.5,7.5c0,.1-.1.1-.2.1s-.1,0-.2-.1l-5.4-7.5c-.3-.4-.7-.6-1.2-.6h-3.5c-.5,0-.9.4-.9.9h0v14.5c0,.5.4.9.9.9h2.1c.5,0,.9-.4.9-.9h0v-11.2l4.8,6.5c.3.4.7.6,1.2.6h2.9c.5,0,.9-.2,1.2-.6l4.8-6.5v11.2c0,.5.4.8.8.9h2.1c.5,0,.8-.4.8-.9v-14.5c-.1-.5-.4-.9-.9-.9h0Z"/>
      <path class="cls-1" d="m226.02,11.86h-2.1c-.5,0-.9.4-.9.9h0v14.5c0,.5.4.9.9.9h2.1c.5,0,.9-.4.9-.9h0v-14.5c0-.5-.4-.9-.9-.9.1,0,0,0,0,0Z"/>
      <path class="cls-1" d="m117.44,49.56h2.9q.1,0,.2-.1c.1,0,.2-.1.2-.2v-.1c0-.1-.2-.4-.4-.7l-7.9-14.4c-.2-.4-.7-.7-1.1-.7h-2.7c-.5,0-.9.3-1.1.7l-8,14.6c-.1.1-.1.2-.1.4s.1.3.2.4c.1.1.3.1.4.1h2.5c.5,0,.9-.3,1.1-.7l6.2-11.5.1-.1.1.1,6.2,11.5c.3.4.7.7,1.2.7Z"/>
      <path class="cls-1" d="m141.13,49.46c.1,0,.2-.1.2-.2s0-.1-.1-.2l-.5-.7-1.6-2.2-1.9-2.7c2.2-.5,3.7-2.6,3.6-4.9h0c.1-1.5-.5-2.9-1.6-3.9s-2.6-1.5-4.2-1.4h-12c-.5,0-.8.4-.8.9v14.5c0,.5.3.9.8.9h2.1c.5,0,.8-.4.9-.8v-11.5c0-.2.2-.4.4-.4h8c.7-.1,1.4.1,1.9.5.4.3.6.8.6,1.4,0,.5-.2.9-.5,1.3-.5.3-1.2.5-1.8.4l-3.9.1,6,8.4c.3.4.7.6,1.2.6h3c.1-.1.2-.1.2-.1Z"/>
      <path class="cls-1" d="m165.53,34.26v14.5c0,.5.4.9.8.9h2.1c.5,0,.8-.4.8-.8v-11.5l9.4,11.6c.3.4.8.6,1.3.6h3.4c.5,0,.8-.4.9-.8h0v-14.5c0-.5-.4-.9-.9-.9h-2.1c-.5,0-.9.4-.9.9v11.2l-9.3-11.5c-.3-.4-.8-.6-1.3-.6h-3.5c-.3,0-.7.4-.7.9Z"/>
      <path class="cls-1" d="m216.12,49.56h2.1c.5,0,.8-.4.9-.8h0v-11.9h6.6c.5,0,.9-.3,1-.9v-1.8c0-.5-.5-.9-1-.9h-16.7c-.5,0-.9.3-1,.9v1.8c0,.5.5.9,1,.9h6.3v11.9c0,.4.4.8.8.8h0Z"/>
      <path class="cls-1" d="m161.03,46.06h-12.4v-3.2h8c.5,0,.9-.3,1-.8h0v-1.8c0-.5-.5-.9-1-.9h-8v-2.6h12c.5,0,.9-.3,1-.8v-1.8c0-.5-.5-.9-1-.9h-14.7c-.2,0-.4.1-.6.2-.3.2-.4.4-.4.7v14.5c0,.5.4.8.9.8h15.5c.5,0,.9-.3,1-.9v-1.8c-.3-.3-.8-.7-1.3-.7Z"/>
      <path class="cls-1" d="m87.64,30.26c-2.9-.1-5.7.8-8.1,2.5-4.1,3-5,8.8-2,12.9.5.8,1.2,1.4,2,2,2.4,1.7,5.2,2.6,8.1,2.5,2,0,4.1-.3,6-1,1.6-.7,3-1.7,4.2-3,.3-.3.3-.7,0-1,0,0-.1-.1-.2-.1l-1.9-1.1c-.3-.2-.7-.1-.9.1-1.7,1.7-4.1,2.6-7,2.6-2.5,0-4.5-.6-6-1.8-2.5-2.1-2.9-5.8-.9-8.4.3-.3.5-.6.9-.9,1.7-1.3,3.7-1.9,5.8-1.8,3.1,0,5.5.9,7.2,2.6.2.2.5.3.8.2l2-.7c.2-.1.4-.3.5-.5s0-.5-.1-.7c-2.6-2.9-6-4.4-10.4-4.4Z"/>
      <path class="cls-1" d="m205.12,46.06h-12.8v-3.2h8.3c.4,0,.7-.3.7-.7v-2c0-.4-.3-.7-.7-.7h-8.3v-2.6h12.2c.4,0,.7-.3.7-.7v-2c0-.4-.3-.7-.7-.7h-15.2c-.4,0-.7.3-.7.7v14.7c0,.4.3.7.7.7h15.8c.4,0,.7-.3.7-.7v-2c.1-.4-.3-.8-.7-.8h0Z"/>
    </g>
  </g>
</svg>