<?xml version="1.0" encoding="UTF-8"?>
<svg id="_レイヤー_1" data-name="レイヤー 1" xmlns="http://www.w3.org/2000/svg" viewBox="0 0 333 61">
  <defs>
    <style>
      .cls-1 {
        fill: #0c4d98;
        stroke-width: 0px;
      }
    </style>
  </defs>
  <g id="_レイヤー_2-2" data-name="レイヤー 2">
    <g id="_レイヤー_2-2" data-name="レイヤー 2-2">
      <path class="cls-1" d="m296.55,12.56c0,.7.5,1.2,1.2,1.2h7.5c.7,0,.8.4.3.8l-10.1,10.1c-.5.5-1.2.5-1.7,0l-10-10.1c-.5-.5-.3-.8.3-.8h7.5c.7,0,1.2-.5,1.2-1.2v-2.2c0-.6-.5-1.2-1.2-1.2h-16.2c-.7,0-1.2.5-1.2,1.2v16.2c0,.7.5,1.2,1.2,1.2h2.2c.7,0,1.2-.5,1.2-1.2v-7.5c0-.7.4-.8.8-.4l8.2,8.2c.6.5,1.3.8,2,.8h9.6c.8,0,1.5-.3,2-.8l8.2-8.2c.5-.5.8-.3.8.4v7.5c0,.7.5,1.2,1.2,1.2h2.2c.7,0,1.2-.5,1.2-1.2V10.36c0-.7-.5-1.2-1.2-1.2h-16.2c-.7,0-1.2.5-1.2,1.2l.2,2.2Z"/>
      <path class="cls-1" d="m310.55,40.16c0,.7-.4.8-.8.4l-8.2-8.1c-.6-.5-1.3-.8-2-.8h-9.7c-.8,0-1.5.3-2,.8l-8.2,8.2c-.5.5-.8.3-.8-.4v-7.5c0-.7-.5-1.2-1.2-1.2h-2.2c-.7,0-1.2.5-1.2,1.2v16.2c0,.7.5,1.2,1.2,1.2h16.2c.7,0,1.2-.5,1.2-1.2v-2.2c0-.7-.5-1.2-1.2-1.2h-7.5c-.7,0-.8-.4-.3-.8l10.1-10.1c.5-.5,1.2-.5,1.7,0l10.1,10.1c.5.5.3.8-.3.8h-7.5c-.7,0-1.2.5-1.2,1.2v2.2c0,.7.5,1.2,1.2,1.2h16.2c.7,0,1.2-.5,1.2-1.2h0v-16.3c0-.7-.5-1.2-1.2-1.2h-2.2c-.7,0-1.2.5-1.2,1.2v7.5h-.2Z"/>
      <path class="cls-1" d="m79.95,31.66l-10-18.3c-.3-.5-.9-.8-1.4-.8h-3.4c-.6,0-1.1.3-1.4.8l-10,18.6c-.1.1-.1.3-.1.4,0,.2.1.4.2.5.2.1.4.2.5.2h3.1c.6,0,1.1-.3,1.4-.9l8-14.6.1-.1s.1,0,.1.1l7.8,14.6c.3.5.9.8,1.4.9h3.1c.2,0,.4,0,.6-.1.1,0,.2,0,.2-.1.1-.1.2-.2.2-.3v-.2s-.2-.4-.4-.7"/>
      <path class="cls-1" d="m161.15,14.66h0c-5.5-3.6-12.6-3.6-18,0-2.7,1.8-4.4,4.9-4.3,8.1h0c0,3.3,1.6,6.4,4.3,8.2,2.6,1.8,5.8,2.8,9,2.7h0c3.2.1,6.4-.8,9-2.7,2.7-1.8,4.3-4.9,4.3-8.1h0c.1-3.2-1.5-6.3-4.3-8.2m-2.8,12.9c-3.7,2.4-8.6,2.4-12.3,0-1.5-1.1-2.3-2.8-2.3-4.6s.8-3.5,2.3-4.6c3.7-2.5,8.5-2.5,12.2,0,1.5,1.1,2.3,2.8,2.3,4.6.1,1.8-.7,3.5-2.2,4.6"/>
      <path class="cls-1" d="m234.35,29.66c0-.6-.5-1.1-1.1-1.1h-13.5c-.3,0-.5-.2-.5-.5v-14.4c0-.6-.5-1.1-1.1-1.1h-2.7c-.6,0-1.1.5-1.1,1.1v18.4c0,.6.5,1.1,1.1,1.1h17.8c.6,0,1-.4,1.1-.9v-2.6Z"/>
      <path class="cls-1" d="m257.25,31.96v-2.2c0-.6-.5-1.1-1.1-1.1h-13.5c-.3,0-.5-.2-.5-.5v-14.5c0-.6-.5-1.1-1.1-1.1h-2.7c-.6,0-1.1.5-1.1,1.1v18.4c0,.6.5,1.1,1.1,1.1h17.9c.6,0,1-.4,1.1-.9q0-.2-.1-.3"/>
      <path class="cls-1" d="m89.15,18.26c1.5-1.2,3.6-1.8,6.3-1.8,2.8-.1,5.5.9,7.5,2.8h0c.1.2.3.3.5.3h.2l3.3-1.1c.2-.1.4-.3.4-.6,0-.2-.1-.4-.2-.5-3-3.5-7.3-5.4-11.9-5.3h0c-3.2-.1-6.4.8-9.1,2.7-2.7,1.8-4.4,4.9-4.3,8.1h0c-.1,3.1,1.4,6,3.8,7.8,2.5,2,5.8,3,9.8,3h0c4.8,0,8.7-1.7,11.7-5,.1-.1.1-.2.2-.4,0-.2-.2-.4-.4-.5h0l-3.1-1.6c-.1-.1-.2-.1-.3-.1-.2,0-.4.1-.5.2-2,2-4.7,3-7.5,3s-4.9-.6-6.4-1.8c-1.5-1.1-2.3-2.8-2.3-4.6,0-1.9.8-3.6,2.3-4.6"/>
      <path class="cls-1" d="m135.15,31.66l-2-2.8-2.4-3.4c2.9-.9,4.5-3.1,4.5-6.2v-.1c0-.1,0,0,0,0,.1-1.8-.7-3.6-2-4.9-1.5-1.3-3.4-1.9-5.3-1.8h-15.1c-.6,0-1.1.5-1.1,1.1v18.4c0,.6.5,1.1,1.1,1.1h2.7c.6,0,1.1-.5,1.1-1.1h0v-14.4c0-.3.2-.5.5-.5h10.1c.9-.1,1.7.1,2.5.6.5.4.8,1.1.7,1.7.1.6-.2,1.2-.7,1.6-.7.4-1.5.6-2.3.6l-5,.2,7.6,10.7c.4.5.9.7,1.5.8h3.3c.2,0,.4,0,.5-.1.1,0,.2,0,.2-.1.2-.1.2-.3.2-.5h0l-.6-.9"/>
      <path class="cls-1" d="m49.05,9.16h-3.5c-.6,0-1.1.3-1.5.7l-9.9,12.5c-.1.1-.2.1-.3.2-.1,0-.2-.1-.3-.2l-9.8-12.5c-.4-.4-.9-.7-1.5-.7h-3.5c-.6,0-1.1.5-1.1,1.1v21.7c0,.6.5,1.1,1.1,1.1h2.7c.6,0,1.1-.5,1.1-1.1V15.26l8,10c.4.4.9.7,1.5.7h4.1c.6,0,1.1-.3,1.5-.7l7.9-10v16.9c0,.6.5,1.1,1.1,1.1h2.7c.6,0,1.1-.5,1.1-1.1h0V10.26c-.3-.6-.8-1.1-1.4-1.1"/>
      <path class="cls-1" d="m197.25,12.66h-4.5c-.6,0-1.1.3-1.5.8l-6.9,9.6c0,.1-.1.1-.2.1s-.2-.1-.2-.1l-6.9-9.6c-.4-.5-.9-.7-1.5-.8h-4.5c-.6,0-1.1.5-1.1,1.1h0v18.4c0,.6.5,1.1,1.1,1.1h2.7c.6,0,1.1-.5,1.1-1.1h0v-14.3l6,8.3c.4.5.9.7,1.5.8h3.6c.6,0,1.1-.3,1.5-.8l6-8.3v14.2c0,.6.5,1.1,1.1,1.1h2.7c.6,0,1.1-.5,1.1-1.1h0V13.66c0-.6-.5-1-1.1-1"/>
      <path class="cls-1" d="m207.75,12.66h-2.7c-.6,0-1.1.5-1.1,1.1v18.4c0,.6.5,1.1,1.1,1.1h2.7c.6,0,1.1-.5,1.1-1.1h0V13.66c0-.6-.5-1-1.1-1"/>
    </g>
  </g>
</svg>