<?xml version="1.0" encoding="UTF-8"?>
<svg id="_レイヤー_1" data-name="レイヤー 1" xmlns="http://www.w3.org/2000/svg" viewBox="0 0 333 61">
  <defs>
    <style>
      .cls-1 {
        fill: #1bb09a;
      }

      .cls-1, .cls-2 {
        stroke-width: 0px;
      }

      .cls-2 {
        fill: #f5a522;
      }
    </style>
  </defs>
  <rect class="cls-1" x="202.3" y="20.36" width="25.46" height="4.41"/>
  <rect class="cls-1" x="199.09" y="39.81" width="31.98" height="4.41"/>
  <path class="cls-1" d="m173.83,34.7v-3.51h17.54v-4.41h-17.54v-5.91h17.54v-4.41h-29.57v4.41h6.22v5.91h-6.22v4.41h6.22v3.41c0,6.32,3.31,14.33,23.26,12.53-2.81-.7-17.44-2.51-17.44-12.43h0Z"/>
  <path class="cls-1" d="m269.46,16.45h-24.26s-3.21,9.02-7.92,16.94c4.61-1.7,9.72-7.52,12.03-12.53h12.43c-.7,1.9-1.5,3.81-2.51,5.91h-9.72v4.41h7.52c-3.21,5.91-8.02,12.13-13.43,17.34,21.15-8.72,25.86-32.08,25.86-32.08Z"/>
  <path class="cls-1" d="m307.66,48.53c-5.01-4.81-9.12-10.73-12.13-16.44,5.11-8.02,6.72-15.64,6.72-15.64h-24.76v4.41h17.04c-3.01,8.12-9.42,19.25-18.04,27.67,6.82-2.81,11.93-7.12,15.74-11.73,4.61,5.41,10.02,9.62,15.44,11.73h0Z"/>
  <path class="cls-2" d="m326,16.55c-1.4,0-2.71-.2-3.71-.5-1-.4-2-.9-2.61-1.6s-1.2-1.6-1.5-2.81c-.3-1.2-.5-2.51-.5-3.91,0-.1-.1-.2-.2-.2s-.2.1-.2.2c0,1.5-.2,2.91-.5,3.91-.3,1.1-.8,2.11-1.5,2.81s-1.6,1.3-2.71,1.6c-1,.4-2.31.5-3.71.5-.1,0-.2.1-.2.2s.1.2.2.2c1.3,0,2.61.3,3.71.9,1,.6,1.9,1.4,2.61,2.61,1.3,2.11,2.11,4.91,2.11,8.12,0,.1.1.2.2.2s.2-.1.2-.2c0-3.21.7-6.11,2.11-8.12.7-1.1,1.5-2,2.61-2.61s2.41-.9,3.71-.9c.1,0,.2-.1.2-.2s-.2-.2-.3-.2h0Z"/>
</svg>