<?xml version="1.0" encoding="UTF-8"?>
<svg xmlns="http://www.w3.org/2000/svg" version="1.1" viewBox="0 0 333 61">
  <defs>
    <style>
      .cls-1 {
        fill: #fff;
      }

      .cls-2 {
        fill: #445155;
      }
    </style>
  </defs>
  <!-- Generator: Adobe Illustrator 28.6.0, SVG Export Plug-In . SVG Version: 1.2.0 Build 709)  -->
  <g>
    <g id="_レイヤー_1">
      <g>
        <path class="cls-2" d="M323-.2h-85.4v61h85.4V-.2Z"/>
        <path class="cls-1" d="M252.6,47.2c0-.2,0-.3.3-.3.9,0,1.5.5,1.5,1.5s-.6,1.5-1.5,1.5c-.1,0-.2,0-.2-.2v-2.5ZM253,50.1c1.3,0,1.9-.6,1.9-1.7s-.7-1.7-2-1.7h-1.2c.4,0,.4.3.4.4v2.6c0,.1,0,.3-.4.3h0c0,0,1.3,0,1.3,0h0Z"/>
        <path class="cls-1" d="M255.7,50c.4,0,.4-.2.4-.3v-2.6c0-.1,0-.3-.4-.3h0c0,0,2.5,0,2.5,0v.7h-.1c0-.3-.2-.5-.5-.5h-.8c-.1,0-.2,0-.2.2v1.1h.7c.3,0,.6,0,.6-.5h.1v1.2h-.1c0-.4-.3-.5-.6-.5h-.7v1.3c0,0,0,.2.1.2h.6c.4,0,.7,0,1-.7h.1l-.2.9h-2.6Z"/>
        <path class="cls-1" d="M259.8,49.1h.1c.1.5.5.9,1,.9s.6-.4.5-.8c-.2-.7-1.5-.7-1.5-1.7s.4-.9.8-.9.7.4.8,0h.1v1.1c.1,0,0,0,0,0-.1-.5-.4-.9-.9-.9s-.5.2-.5.5.3.5.5.6c.7.4,1.1.6,1.1,1.3s-.4.9-1,.9-.8-.4-.9,0h-.1v-1.1h-.1Z"/>
        <path class="cls-1" d="M264.2,49.7c0,.1,0,.3.5.3h0c0,0-1.4,0-1.4,0h0c.4,0,.5-.3.5-.4v-2.6c0-.1,0-.3-.5-.3h0c0,0,1.4,0,1.4,0h0c-.4,0-.5.3-.5.4v2.6Z"/>
        <path class="cls-1" d="M268.5,47.7h-.1c-.2-.5-.5-.9-1.1-.9s-1.1.7-1.1,1.6.4,1.5,1.2,1.5.4,0,.5-.1c.1,0,.1-.1.1-.3v-.8c0-.3,0-.5-.4-.5h0c0,0,1.2,0,1.2,0h0c-.3.1-.3.3-.3.6v1c-.3.2-.8.4-1.2.4-.8,0-1.7-.6-1.7-1.8s.7-1.8,1.6-1.8,1,.4,1.1,0h0v1.1s0,0,0,0Z"/>
        <path class="cls-1" d="M272.8,50.2h0l-2.1-2.8h0v2.3c0,.1,0,.3.5.3h0c0,0-1.1,0-1.1,0h0c.4,0,.5-.3.5-.4v-2.6h0c-.1-.2-.2-.3-.4-.3h0c0,0,.8,0,.8,0l1.8,2.5h0v-2.1c0-.1,0-.3-.5-.3h0c0,0,1.1,0,1.1,0h0c-.4,0-.5.3-.5.4v3h0Z"/>
        <path class="cls-1" d="M275.4,49.7c0,.1,0,.3.5.3h0c0,0-1.4,0-1.4,0h0c.4,0,.5-.3.5-.4v-2.6c0-.1,0-.3-.5-.3h0c0,0,1.4,0,1.4,0h0c-.4,0-.5.3-.5.4v2.6Z"/>
        <path class="cls-1" d="M279.9,50.2h0l-2.1-2.8h0v2.3c0,.1,0,.3.5.3h0c0,0-1.1,0-1.1,0h0c.4,0,.5-.3.5-.4v-2.6h0c-.1-.2-.2-.3-.4-.3h0c0,0,.8,0,.8,0l1.8,2.5h0v-2.1c0-.1,0-.3-.5-.3h0c0,0,1.1,0,1.1,0h0c-.4,0-.5.3-.5.4v3h0Z"/>
        <path class="cls-1" d="M284.2,47.7h-.1c-.2-.5-.5-.9-1.1-.9s-1.1.7-1.1,1.6.4,1.5,1.2,1.5.4,0,.5-.1c.1,0,.1-.1.1-.3v-.8c0-.3,0-.5-.4-.5h0c0,0,1.2,0,1.2,0h0c-.3.1-.3.3-.3.6v1c-.3.2-.8.4-1.2.4-.8,0-1.7-.6-1.7-1.8s.7-1.8,1.6-1.8,1,.4,1.1,0h0v1.1s0,0,0,0Z"/>
        <path class="cls-1" d="M287.8,49.1h.1c.1.5.5.9,1,.9s.6-.4.5-.8c-.2-.7-1.5-.7-1.5-1.7s.4-.9.8-.9.7.4.8,0h0v1.1c.1,0,0,0,0,0-.1-.5-.4-.9-.9-.9s-.5.2-.5.5.3.5.5.6c.7.4,1.1.6,1.1,1.3s-.4.9-1,.9-.8-.4-.9,0h-.1v-1.1h-.1Z"/>
        <path class="cls-1" d="M292.8,49.7c0,.1,0,.3.4.3h0c0,0-1.3,0-1.3,0h0c.3,0,.4-.3.4-.4v-2.8c-.3,0-.7,0-.9.2-.1.1-.1.3-.2.5h-.1v-.9h2.7v.9s0,0,0,0c-.1-.7-.3-.7-.7-.7h-.3v2.8h0Z"/>
        <path class="cls-1" d="M295.8,47.2c0-.2,0-.2.4-.2s.8.2.8.7-.4.7-1.1.7v-1.2h0ZM295.3,49.7c0,.1,0,.3-.4.3h0c0,0,1.3,0,1.3,0h0c-.3,0-.4-.3-.4-.4v-1.2h.3s1.1,1.6,1.1,1.6h.8c-.2-.1-.3-.2-.5-.4l-.9-1.3c.4,0,.9-.3.9-.9s-.5-.9-1.3-.9h-1.3c.3,0,.4.3.4.4v2.6h0Z"/>
        <path class="cls-1" d="M300.2,47.4l.6,1.4h-1.1l.5-1.4ZM300.4,46.7h0l-1,2.5c-.2.5-.3.9-.6.9h0c0,0,.9,0,.9,0h0c-.2,0-.3-.1-.3-.3s.2-.6.3-.8h1.3l.2.4c.2.5.2.5-.2.6h0c0,0,1.2,0,1.2,0h0c-.3,0-.4-.4-.5-.6l-1.2-2.9h0Z"/>
        <path class="cls-1" d="M304,49.7c0,.1,0,.3.4.3h0c0,0-1.3,0-1.3,0h0c.3,0,.4-.3.4-.4v-2.8c-.3,0-.7,0-.9.2-.1.1-.1.3-.2.5h-.1v-.9h2.7v.9s0,0,0,0c-.1-.7-.3-.7-.7-.7h-.3v2.8h0Z"/>
        <path class="cls-1" d="M306.2,50.1h0c.3,0,.4-.3.4-.4v-2.6c0-.1,0-.3-.4-.3h0c0,0,2.5,0,2.5,0v.7h-.1c0-.3-.2-.5-.5-.5h-.8c-.1,0-.2,0-.2.2v1.1h.7c.3,0,.6,0,.6-.5h0v1.2h0c0-.4-.3-.5-.6-.5h-.7v1.3c0,0,0,.2.1.2h.6c.4,0,.7,0,1-.7h.1l-.2.9h-2.6,0Z"/>
        <path class="cls-1" d="M312.9,47.7h-.1c-.2-.5-.5-.9-1.1-.9-.8,0-1.1.7-1.1,1.6s.4,1.5,1.2,1.5.4,0,.5-.1c.1,0,.1-.1.1-.3v-.8c0-.3,0-.5-.4-.5h0c0,0,1.2,0,1.2,0h0c-.3.1-.3.3-.3.6v1c-.3.2-.8.4-1.2.4-.8,0-1.7-.6-1.7-1.8s.7-1.8,1.6-1.8,1,.4,1.1,0h0v1.1s0,0,0,0Z"/>
        <path class="cls-1" d="M315.6,48.3l.7-1.1c0,0,.1-.2,0-.3,0,0,0,0-.3,0h0c0,0,1,0,1,0h0c-.3.1-.5.5-.7.7l-.7,1.1v1.1c0,.1,0,.3.5.3h0c0,0-1.5,0-1.5,0h0c.4,0,.5-.3.5-.4v-1.1l-.6-.9c-.3-.5-.5-.8-.8-.9h0c0,0,1.3,0,1.3,0h0c-.3,0-.3.1-.3.2s0,.2.1.3l.7,1.1Z"/>
        <path class="cls-1" d="M258.2,21.5c0,.5.2,1,1.5,1v.3h-4.6v-.3c1.3,0,1.5-.5,1.5-1v-8.3c0-.5-.2-1-1.5-1v-.3h4.6v.3c-1.3,0-1.5.5-1.5,1v8.3Z"/>
        <path class="cls-1" d="M274.1,14.1l1.8,4.5h-3.6l1.8-4.5ZM274.3,11.7l-3.1,7.9c-.6,1.6-1,2.8-2,2.9v.3h3v-.3c-.5,0-1-.1-1-.7s.6-1.9.8-2.6h4l.6,1.4c.6,1.5.6,1.8-.7,1.8v.3h3.9v-.3c-.9,0-1.2-.9-1.5-1.6l-3.8-9.2h-.3Z"/>
        <path class="cls-1" d="M291.7,21.5c0,.5.2,1,1.5,1v.3h-4.6v-.3c1.3,0,1.5-.5,1.5-1v-8.3c0-.5-.2-1-1.5-1v-.3h4.6v.3c-1.3,0-1.5.5-1.5,1v8.3Z"/>
        <path class="cls-1" d="M299.6,12.3c2.4,0,3.3,2.5,3.3,5.1,0,1.8-.6,4.9-3.3,5.1-1.8.1-3.3-1.7-3.3-5.1s1-4.9,3.3-5.1ZM299.6,11.7c-3,0-5,2.4-5,5.7s2.3,5.7,5,5.7,5-2.5,5-5.7-2.4-5.8-5-5.7Z"/>
        <path class="cls-1" d="M315.2,23.1h-.2l-6.8-9.1h0v7.5c0,.5.2,1,1.5,1v.3h-3.7v-.3c1.3,0,1.5-.5,1.5-1v-8.5c-.6-.6-.7-.7-1.5-.7v-.3h2.6l5.9,7.9h0v-6.6c0-.5-.2-1-1.5-1v-.3h3.7v.3c-1.3,0-1.5.5-1.5,1v9.8Z"/>
        <path class="cls-1" d="M255.7,33l1.8,4.5h-3.6l1.8-4.5h0ZM256,30.7l-3.1,7.9c-.6,1.6-1,2.8-2,2.9v.3h3v-.3c-.5,0-1-.1-1-.7s.6-1.9.8-2.6h4l.6,1.4c.6,1.5.6,1.8-.7,1.8v.3h3.9v-.3c-.9,0-1.2-.9-1.5-1.6l-3.8-9.2h-.3Z"/>
        <path class="cls-1" d="M265.9,32.3c0-.7,0-.8.7-.8,1.5,0,2.9.5,2.9,2.4s-1.2,2.5-2.8,2.5-.5,0-.8,0v-4.1h0ZM264.4,40.5c0,.5-.2,1-1.4,1v.3h4.3v-.3c-1.1,0-1.4-.5-1.4-1v-3.5c.4,0,.9,0,1.3,0,2,0,3.9-.8,3.9-3.3s-1.8-2.9-4.2-2.9h-3.9v.3c1,0,1.3.5,1.3,1v8.3h0Z"/>
        <path class="cls-1" d="M275,33l1.8,4.5h-3.6l1.8-4.5h0ZM275.2,30.7l-3.1,7.9c-.6,1.6-1,2.8-2,2.9v.3h3v-.3c-.5,0-1-.1-1-.7s.6-1.9.8-2.6h4l.6,1.4c.6,1.5.6,1.8-.7,1.8v.3h3.9v-.3c-.9,0-1.2-.9-1.5-1.6l-3.8-9.2h-.3Z"/>
        <path class="cls-1" d="M291.2,42h-.2l-6.8-9.1h0v7.5c0,.5.2,1,1.5,1v.3h-3.7v-.3c1.3,0,1.5-.5,1.5-1v-8.5c-.6-.6-.7-.7-1.5-.7v-.3h2.6l5.9,7.9h0v-6.6c0-.5-.2-1-1.5-1v-.3h3.7v.3c-1.3,0-1.5.5-1.5,1v9.8h0Z"/>
        <path class="cls-1" d="M317.1,25.6h-72.1c0,.1,72.1.1,72.1.1h0Z"/>
        <path class="cls-1" d="M317.1,44.5h-72.1c0,.1,72.1.1,72.1.1h0Z"/>
        <path class="cls-1" d="M270.1,13.5v-1.4s0-.1,0-.1v-.6h-.1c-.3.4-.6.6-1,.6h-6.5c-.4,0-.7-.2-1-.6h-.1v.6h0v2.8c0,0,.3,0,.3,0,.1-.5.2-1.1.5-1.5.4-.7,1.6-.6,2.8-.6v8.9c0,.5-.2,1-1.4,1v.3h4.3v-.3c-1.1,0-1.4-.5-1.4-1v-8.9h1.1c1.1,0,1.8,0,2.2,2.1h.4v-1.3h0Z"/>
        <path class="cls-1" d="M287.5,13.5h0v-1.4s0-.1,0-.1v-.6h-.1c-.3.4-.6.6-1,.6h-6.5c-.4,0-.7-.2-1-.6h-.1v.6h0v2.8c0,0,.3,0,.3,0,.1-.5.2-1.1.5-1.5.4-.7,1.6-.6,2.8-.6v8.9c0,.5-.2,1-1.4,1v.3h4.3v-.3c-1.1,0-1.4-.5-1.4-1v-8.9h1.1c1.1,0,1.8,0,2.2,2.1h.4v-1.3h0Z"/>
        <path class="cls-1" d="M246.7,30.8v.5c1.3,0,1.5.8,1.5,1.6v6.9s.4,6.6-2.2,6.6c0,0,0-.3,0-.3,0-.5-.4-.9-.8-.9s-.8.4-.8.9.5.9,1,.9c0,0,0,0,0,0,4.7-.2,4.3-7.2,4.3-7.2v-6.9c.1-.8.3-1.6,1.6-1.6v-.5h-4.6Z"/>
        <path class="cls-1" d="M253.9,22.1c-1.2.6-2.1,1.1-3.7,1.1s-3.1-.5-4.2-1.6c-1-1-1.5-2.4-1.5-4.2s.5-3.1,1.5-4.2c1-1,2.4-1.6,4.1-1.6s2.5.4,3.5,1.1v2.2c0,0-.2,0-.2,0h0c-.1-.8-.6-1.7-1.2-2.2-.6-.4-1.2-.5-2.1-.5s-2.1.3-2.9,1.3c-.7,1-1.1,2.3-1.1,3.8s.4,2.9,1.2,3.9c.8,1,1.8,1.3,3,1.3s3.1-.9,3.3-2.3h0c0-.1.2-.1.2-.1v2c0,0,0,0,0,0Z"/>
      </g>
    </g>
  </g>
</svg>