<?xml version="1.0" encoding="UTF-8"?>
<svg id="_レイヤー_1" data-name="レイヤー 1" xmlns="http://www.w3.org/2000/svg" viewBox="0 0 333 61">
  <defs>
    <style>
      .cls-1 {
        fill: #0c4d98;
        stroke-width: 0px;
      }
    </style>
  </defs>
  <path class="cls-1" d="m325.04,10h-16.23c-.63,0-1.16.53-1.16,1.16v2.21c0,.63.53,1.16,1.16,1.16h7.48c.63,0,.74.42.42.84l-10.12,10.12c-.53.53-1.26.53-1.69,0l-10.22-10.12c-.53-.53-.32-.84.42-.84h7.48c.63,0,1.16-.53,1.16-1.16v-2.21c0-.63-.53-1.16-1.16-1.16h-16.23c-.63,0-1.16.53-1.16,1.16v16.23c0,.63.53,1.16,1.16,1.16h2.21c.63,0,1.16-.53,1.16-1.16v-7.48c0-.63.42-.74.84-.42l8.22,8.22c.53.53,1.37.84,2,.84h9.7c.63,0,1.58-.42,2-.84l8.22-8.22c.53-.53.84-.32.84.42v7.48c0,.63.53,1.16,1.16,1.16h2.21c.63,0,1.16-.53,1.16-1.16V11.16c.11-.63-.42-1.16-1.05-1.16Z"/>
  <path class="cls-1" d="m325.04,32.45h-2.21c-.63,0-1.16.53-1.16,1.16v7.48c0,.63-.42.74-.84.42l-8.22-8.22c-.53-.53-1.37-.84-2-.84h-9.7c-.63,0-1.58.42-2,.84l-8.22,8.22c-.53.53-.84.32-.84-.42v-7.48c0-.63-.53-1.16-1.16-1.16h-2.21c-.63,0-1.16.53-1.16,1.16v16.23c0,.63.53,1.16,1.16,1.16h16.23c.63,0,1.16-.53,1.16-1.16v-2.21c0-.63-.53-1.16-1.16-1.16h-7.48c-.63,0-.74-.42-.42-.84l10.22-10.12c.53-.53,1.26-.53,1.69,0l10.12,10.12c.53.53.32.84-.42.84h-7.48c-.63,0-1.16.53-1.16,1.16v2.21c0,.63.53,1.16,1.16,1.16h16.23c.63,0,1.16-.53,1.16-1.16v-16.23c-.11-.74-.63-1.16-1.26-1.16Z"/>
  <path class="cls-1" d="m29.29,40.67c-1.16-.84-2.85-1.48-5.16-1.69-.74-.11-2.42-.21-4.95-.42-1.69-.11-2.85-.21-3.58-.42-1.37-.53-1.37-1.16-1.37-1.37,0-.42.11-.95,1.26-1.48.95-.42,2.32-.53,4.01-.53,2.63,0,5.16.63,7.69,1.79.32.21.63.11.84-.21l1.37-1.48c.21-.21.21-.42.21-.53,0-.21-.21-.42-.32-.53-2.63-1.69-5.8-2.53-9.59-2.53-2.85,0-5.16.53-6.85,1.58s-2.53,2.53-2.53,4.32.74,3.06,2.32,3.9c1.26.53,3.37,1.05,6.32,1.26,3.27.21,5.27.42,6.11.53,1.26.32,1.9.95,1.9,1.9,0,.84-.53,1.48-1.48,2-1.05.53-2.74.84-4.74.84-3.06,0-6.01-.74-8.54-2.42-.32-.21-.74-.11-.95.21l-1.26,1.69s0,.21,0,.32c0,.21.11.42.32.53,2.63,1.9,6.22,2.85,10.65,2.85,3.16,0,5.69-.53,7.38-1.69,1.79-1.16,2.74-2.74,2.74-4.74-.11-1.48-.63-2.74-1.79-3.69Z"/>
  <path class="cls-1" d="m179.8,41.62c-1.05-.63-2.85-1.16-5.38-1.37-1.69-.21-3.37-.32-5.06-.53-1.58-.32-1.58-.84-1.58-1.05,0-1.26,2.85-1.48,4.64-1.48,2.11,0,4.11.53,6.01,1.37.32.21.63.11.84-.21l1.37-1.48c.21-.21.21-.42.21-.53,0-.21-.21-.42-.32-.53-2.11-1.37-4.85-2-8.12-2-2.63,0-4.64.53-6.11,1.37-1.58.84-2.32,2.11-2.32,3.79,0,1.37.53,2.32,1.48,2.95.95.63,2.42,1.05,4.22,1.26.53.11,1.69.11,3.9.21,1.37.11,2.21.21,2.85.42.95.32,1.48.74,1.48,1.37,0,.21,0,.84-1.16,1.48-.84.42-2.11.53-3.79.53-2.85,0-5.16-.63-7.17-1.9-.32-.21-.74-.11-.95.21l-1.16,1.58c-.11.21-.21.42-.11.53,0,.21.11.42.32.53,2.32,1.69,5.38,2.53,9.17,2.53,2.85,0,5.06-.53,6.43-1.37,1.58-.95,2.32-2.32,2.32-4.01-.11-1.69-.74-2.95-2-3.69Z"/>
  <path class="cls-1" d="m242.61,41.94c-1.05-.63-2.85-1.16-5.38-1.37-1.69-.21-3.37-.32-5.06-.53-1.58-.32-1.58-.84-1.58-1.05,0-1.26,2.85-1.48,4.64-1.48,2.11,0,4.11.53,6.01,1.37.32.21.63.11.84-.21l1.37-1.48c.21-.21.21-.42.21-.53,0-.21-.21-.42-.32-.53-2.11-1.37-4.85-2-8.12-2-2.63,0-4.64.53-6.11,1.37-1.58.84-2.32,2.11-2.32,3.79,0,1.37.53,2.32,1.48,2.95.95.63,2.42,1.05,4.22,1.26.53.11,1.69.11,3.9.21,1.37.11,2.21.21,2.85.42.95.32,1.48.74,1.48,1.37,0,.21,0,.84-1.16,1.48-.84.42-2.11.53-3.79.53-2.85,0-5.16-.63-7.17-1.9-.32-.21-.74-.11-.95.21l-1.16,1.58c-.11.21-.21.42-.11.53,0,.21.11.42.32.53,2.32,1.69,5.38,2.53,9.17,2.53,2.85,0,5.06-.53,6.43-1.37,1.58-.95,2.32-2.32,2.32-4.01,0-1.69-.74-2.85-2-3.69Z"/>
  <path class="cls-1" d="m57.22,28.23h.42q.11,0,.21-.11s.11-.11.21-.21v-.11c0-.11-.21-.42-.42-.63l-7.69-13.91c-.21-.42-.63-.63-1.05-.63h-2.63c-.42,0-.84.32-1.05.63l-7.69,14.12c-.11.11-.11.21-.11.32,0,.21.11.32.21.42s.32.11.42.11h2.42c.42,0,.84-.32,1.05-.63l6.01-11.07.11-.11.11.11,6.01,11.07c.21.42.63.63,1.05.63-.11,0,2.42,0,2.42,0Z"/>
  <path class="cls-1" d="m122.78,20.33h0c0-2.53-1.16-4.64-3.27-6.22-1.9-1.37-4.22-2.11-6.85-2.11s-4.95.63-6.85,2.11c-2.21,1.58-3.27,3.69-3.27,6.22h0c0,2.53,1.16,4.74,3.27,6.22,1.79,1.37,4.11,2,6.85,2h0c2.74,0,5.06-.63,6.85-2,2.11-1.58,3.27-3.69,3.27-6.22h0Zm-5.48,3.48c-1.16.84-2.74,1.37-4.64,1.37-2,0-3.58-.53-4.74-1.37-1.16-.95-1.69-2-1.69-3.58,0-1.48.53-2.53,1.69-3.48,1.16-.95,2.74-1.48,4.64-1.48s3.48.53,4.64,1.48c1.16.95,1.69,2,1.69,3.48,0,1.58-.42,2.74-1.58,3.58Z"/>
  <path class="cls-1" d="m160.83,28.23h13.49c.84,0,.84-.84.84-.84v-1.69c0-.53-.42-.84-.84-.84h-10.22c-.21,0-.42-.21-.42-.42v-11.07c0-.53-.42-.84-.84-.84h-2c-.53,0-.84.42-.84.84v14.02c0,.53.32.84.84.84Z"/>
  <path class="cls-1" d="m178.22,28.23h13.49c.84,0,.84-.84.84-.84v-1.69c0-.53-.42-.84-.84-.84h-10.22c-.21,0-.42-.21-.42-.42v-11.07c0-.53-.42-.84-.84-.84h-2c-.53,0-.74.42-.84.84v14.02c.11.53.53.84.84.84Z"/>
  <path class="cls-1" d="m61.96,26.23c1.9,1.58,4.43,2.32,7.38,2.32h0c3.69,0,6.64-1.26,8.85-3.9.11-.11.11-.21.11-.32,0-.32-.21-.42-.32-.42h0l-2.32-1.26c-.11,0-.21-.11-.21-.11-.21,0-.42.11-.42.21-1.48,1.48-3.37,2.21-5.69,2.21-2.11,0-3.69-.53-4.85-1.37s-1.69-2-1.69-3.48.53-2.53,1.69-3.48c1.16-.84,2.85-1.37,4.85-1.37,2.32,0,4.11.63,5.69,2.11h0s.21.21.42.21h.11l2.53-.84c.21-.11.32-.32.32-.42,0-.21-.11-.42-.11-.42-2.32-2.74-5.38-4.01-9.06-4.01h0c-2.74,0-5.06.63-6.85,2-2.11,1.58-3.27,3.69-3.27,6.22h0c-.11,2.63.95,4.64,2.85,6.11Z"/>
  <path class="cls-1" d="m82.62,28.23h2c.53,0,.84-.42.84-.84v-11.07c0-.21.21-.42.42-.42h7.69c.84,0,1.58.21,1.79.53.42.32.53.63.53,1.37,0,.53-.21.95-.53,1.26s-.84.42-1.69.42l-3.79.11,5.8,8.12c.32.42.63.53,1.16.53h2.95q.11,0,.21-.11l.21-.21v-.11c-.11-.11-.32-.42-.53-.63l-1.58-2.11-1.79-2.63c2.21-.63,3.48-2.32,3.48-4.74h0c0-1.58-.53-2.85-1.58-3.69-1.05-.95-2.42-1.37-4.01-1.37h-11.59c-.53,0-.84.42-.84.84v14.02c0,.42.32.74.84.74Z"/>
  <path class="cls-1" d="m34.87,27.39V10.84c0-.53-.42-.84-.84-.84h-2.74c-.42,0-.84.21-1.16.53l-7.48,9.59q-.11.11-.21.11t-.21-.11l-7.48-9.59c-.32-.32-.74-.53-1.16-.53h-2.63c-.53,0-.84.42-.84.84v16.55c0,.53.42.84.84.84h2c.53,0,.84-.42.84-.84v-12.75l6.01,7.59c.32.32.74.53,1.16.53h3.16c.42,0,.84-.21,1.16-.53l6.01-7.59v12.86c0,.53.42.84.84.84h2c.32-.11.74-.42.74-.95Z"/>
  <path class="cls-1" d="m126.99,28.23h2c.53,0,.84-.42.84-.84v-10.75l4.64,6.22c.32.32.63.53,1.16.53h2.74c.42,0,.84-.32,1.16-.53l4.64-6.22v10.75c0,.53.42.84.84.84h2c.53,0,.84-.42.84-.84v-13.91c0-.53-.42-.84-.84-.84h-3.37c-.42,0-.84.32-1.16.53l-5.16,7.27q-.11.11-.21.11t-.21-.11l-5.16-7.27c-.32-.42-.63-.53-1.16-.53h-3.37c-.53,0-.84.42-.84.84v14.02c-.21.42.11.74.63.74Z"/>
  <path class="cls-1" d="m152.81,28.23h2c.53,0,.84-.42.84-.84v-13.91c0-.53-.42-.84-.84-.84h-2c-.53,0-.84.42-.84.84v14.02c.11.32.42.74.84.74Z"/>
  <path class="cls-1" d="m49.42,36.35c-1.9-1.37-4.11-2.11-6.85-2.11s-4.95.63-6.85,2.11c-2.21,1.69-3.27,3.69-3.27,6.22s1.05,4.64,3.27,6.22c1.79,1.37,4.11,2,6.85,2s5.06-.63,6.85-2c2.21-1.69,3.27-3.69,3.27-6.22.11-2.53-1.05-4.53-3.27-6.22Zm-2.11,9.8c-1.16.95-2.74,1.37-4.64,1.37s-3.58-.53-4.74-1.37-1.69-2.11-1.69-3.58.53-2.63,1.69-3.48c1.16-.95,2.85-1.48,4.64-1.48,1.9,0,3.48.53,4.64,1.48,1.16.95,1.69,2.11,1.69,3.48.11,1.48-.42,2.63-1.58,3.58Z"/>
  <path class="cls-1" d="m249.78,34.87h-2.21c-.42,0-.63.32-.63.63v14.12c0,.42.32.63.63.63h2.21c.42,0,.63-.32.63-.63v-14.12c.11-.42-.21-.63-.63-.63Z"/>
  <path class="cls-1" d="m162.09,49.31l-7.69-14.23c-.21-.42-.63-.63-1.16-.63h-2.74c-.53,0-.84.32-1.16.63l-7.9,14.44c-.11.11-.11.21-.11.42s.11.32.21.42c.11.11.32.11.42.11h2.42c.53,0,.84-.32,1.16-.63l6.22-11.38.11-.11.11.11,6.22,11.38c.21.42.63.63,1.16.63h2.95q.11,0,.21-.11s.21-.11.21-.32v-.11c-.32-.11-.53-.42-.63-.63Z"/>
  <path class="cls-1" d="m272.86,49.31l-7.69-14.12c-.21-.42-.63-.63-1.16-.63h-2.74c-.53,0-.84.32-1.16.63l-7.9,14.44c-.11.11-.11.21-.11.42s.11.32.21.42c.11.11.32.11.42.11h2.42c.53,0,.84-.32,1.16-.63l6.22-11.38.11-.11.11.11,6.22,11.38c.21.42.63.63,1.16.63h2.95q.11,0,.21-.11s.21-.11.21-.32v-.21c-.21-.11-.42-.42-.63-.63Z"/>
  <path class="cls-1" d="m139.01,46.99h-15.07v-4.53h9.7c.42,0,.74-.32.74-.74v-1.9c0-.42-.32-.74-.74-.74h-9.7v-3.9h14.33c.42,0,.74-.32.74-.74v-1.9c0-.42-.32-.74-.74-.74h-17.29c-.42,0-.74.32-.74.74v17.29c0,.42.32.74.74.74h17.92c.42,0,.74-.32.74-.74v-1.9c.11-.63-.21-.95-.63-.95Z"/>
  <path class="cls-1" d="m199.82,34.77h-16.34c-.42,0-.74.32-.74.74v1.9c0,.42.32.74.74.74h6.32v11.59c0,.42.32.74.74.74h2.21c.42,0,.74-.32.74-.74v-11.59h6.32c.42,0,.74-.32.74-.74v-1.9c0-.53-.32-.74-.74-.74Z"/>
  <path class="cls-1" d="m91.37,34.77h-16.44c-.42,0-.74.32-.74.74v1.9c0,.42.32.74.74.74h6.32v11.59c0,.42.32.74.74.74h2.21c.42,0,.74-.32.74-.74v-11.59h6.32c.42,0,.74-.32.74-.74v-1.9c.11-.53-.21-.74-.63-.74Z"/>
  <path class="cls-1" d="m71.87,34.56h-2.21c-.42,0-.74.32-.74.74v8.96c0,.74,0,2.95-5.38,2.95s-5.38-2.21-5.38-2.95v-8.96c0-.42-.32-.74-.74-.74h-2.11c-.42,0-.74.32-.74.74v9.59c0,1.69.84,3.06,2.53,4.11,1.69,1.05,3.9,1.58,6.53,1.58s4.95-.53,6.43-1.58c1.69-1.05,2.53-2.53,2.53-4.11v-9.59c-.11-.32-.32-.74-.74-.74Z"/>
  <path class="cls-1" d="m216.16,32.45c-.32-.53-.63-.74-1.26-.74h-2.32c-.53,0-.95.32-1.26.74l-9.28,17.18c-.11.21-.11.42,0,.53.11.21.32.32.53.32h2.53c.53,0,.95-.32,1.26-.74l7.38-13.7,7.38,13.7c.32.53.63.74,1.26.74h2.53c.21,0,.42-.11.53-.32s.11-.42,0-.53l-9.28-17.18Z"/>
  <path class="cls-1" d="m111.29,34.77h-2.21c-.42,0-.74.32-.74.74v5.06h-10.75v-5.06c0-.42-.32-.74-.74-.74h-2.21c-.42,0-.74.32-.74.74v14.23c0,.42.32.74.74.74h2.21c.42,0,.74-.32.74-.74v-5.8h10.75v5.8c0,.42.32.74.74.74h2.21c.42,0,.74-.32.74-.74v-14.23c-.11-.53-.32-.74-.74-.74Z"/>
</svg>