<?xml version="1.0" encoding="utf-8"?>
<!-- Generator: Adobe Illustrator 28.0.0, SVG Export Plug-In . SVG Version: 6.00 Build 0)  -->
<svg version="1.1" id="_レイヤー_1" xmlns="http://www.w3.org/2000/svg" xmlns:xlink="http://www.w3.org/1999/xlink" x="0px"
	 y="0px" viewBox="0 0 333 61" style="enable-background:new 0 0 333 61;" xml:space="preserve">
<style type="text/css">
	.st0{fill:#070001;}
	.st1{fill:#EBAF64;}
</style>
<path class="st0" d="M270.8,44.2H235V8.3h35.9V44.2z M242.9,36.2H263V16.1h-20.1L242.9,36.2L242.9,36.2z"/>
<path class="st1" d="M298.3,46.8c-11.4,0-20.6-9.2-20.6-20.6s9.4-20.6,20.6-20.6s20.6,9.2,20.6,20.6S309.7,46.8,298.3,46.8
	L298.3,46.8z M298.3,13.6c-7,0-12.6,5.6-12.6,12.6s5.6,12.6,12.6,12.6s12.6-5.6,12.6-12.6S305.3,13.6,298.3,13.6z"/>
<rect x="253.1" y="27.1" transform="matrix(0.8585 -0.5128 0.5128 0.8585 15.6946 137.5128)" class="st0" width="8" height="26.3"/>
</svg>
