<?xml version="1.0" encoding="UTF-8"?>
<svg id="_レイヤー_1" data-name="レイヤー 1" xmlns="http://www.w3.org/2000/svg" viewBox="0 0 333 61">
  <defs>
    <style>
      .cls-1 {
        fill: #0c4d98;
        stroke-width: 0px;
      }
    </style>
  </defs>
  <g>
    <path class="cls-1" d="m307.65,12.66c0,.7.5,1.2,1.2,1.2h7.48c.7,0,.8.4.4.9l-10.08,10.08c-.4.4-1.2.4-1.7,0l-10.08-10.18c-.4-.4-.3-.9.4-.9h7.48c.7,0,1.2-.5,1.2-1.2v-2.19c0-.7-.5-1.2-1.2-1.2h-16.16c-.7,0-1.2.5-1.2,1.2v16.16c0,.7.5,1.2,1.2,1.2h2.19c.7,0,1.2-.5,1.2-1.2v-7.38c0-.7.4-.8.9-.4l8.18,8.18c.4.4,1.4.9,2,.9h9.58c.7,0,1.6-.4,2-.9l8.18-8.18c.4-.4.9-.3.9.4v7.48c0,.7.5,1.2,1.2,1.2h2.19c.7,0,1.2-.5,1.2-1.2V10.36c0-.7-.5-1.2-1.2-1.2h-16.16c-.7,0-1.2.5-1.2,1.2l-.1,2.29h0Z"/>
    <path class="cls-1" d="m321.61,40.29c0,.7-.4.8-.9.4l-8.18-8.18c-.4-.4-1.4-.9-2-.9h-9.58c-.7,0-1.6.4-2,.9l-8.18,8.18c-.4.4-.9.3-.9-.4v-7.48c0-.7-.5-1.2-1.2-1.2h-2.19c-.7,0-1.2.5-1.2,1.2v16.16c0,.7.5,1.2,1.2,1.2h16.16c.7,0,1.2-.5,1.2-1.2v-2.19c0-.7-.5-1.2-1.2-1.2h-7.48c-.7,0-.8-.4-.4-.9l10.08-10.08c.4-.4,1.2-.4,1.7,0l10.08,10.08c.4.4.3.9-.4.9h-7.48c-.7,0-1.2.5-1.2,1.2v2.19c0,.7.5,1.2,1.2,1.2h16.16c.7,0,1.2-.5,1.2-1.2v-16.16c0-.7-.5-1.2-1.2-1.2h-2.19c-.7,0-1.2.5-1.2,1.2v7.48h.1Z"/>
    <path class="cls-1" d="m307.65,12.66c0,.7.5,1.2,1.2,1.2h7.48c.7,0,.8.4.4.9l-10.08,10.08c-.4.4-1.2.4-1.7,0l-10.08-10.18c-.4-.4-.3-.9.4-.9h7.48c.7,0,1.2-.5,1.2-1.2v-2.19c0-.7-.5-1.2-1.2-1.2h-16.16c-.7,0-1.2.5-1.2,1.2v16.16c0,.7.5,1.2,1.2,1.2h2.19c.7,0,1.2-.5,1.2-1.2v-7.38c0-.7.4-.8.9-.4l8.18,8.18c.4.4,1.4.9,2,.9h9.58c.7,0,1.6-.4,2-.9l8.18-8.18c.4-.4.9-.3.9.4v7.48c0,.7.5,1.2,1.2,1.2h2.19c.7,0,1.2-.5,1.2-1.2V10.36c0-.7-.5-1.2-1.2-1.2h-16.16c-.7,0-1.2.5-1.2,1.2l-.1,2.29h0Z"/>
    <path class="cls-1" d="m321.61,40.29c0,.7-.4.8-.9.4l-8.18-8.18c-.4-.4-1.4-.9-2-.9h-9.58c-.7,0-1.6.4-2,.9l-8.18,8.18c-.4.4-.9.3-.9-.4v-7.48c0-.7-.5-1.2-1.2-1.2h-2.19c-.7,0-1.2.5-1.2,1.2v16.16c0,.7.5,1.2,1.2,1.2h16.16c.7,0,1.2-.5,1.2-1.2v-2.19c0-.7-.5-1.2-1.2-1.2h-7.48c-.7,0-.8-.4-.4-.9l10.08-10.08c.4-.4,1.2-.4,1.7,0l10.08,10.08c.4.4.3.9-.4.9h-7.48c-.7,0-1.2.5-1.2,1.2v2.19c0,.7.5,1.2,1.2,1.2h16.16c.7,0,1.2-.5,1.2-1.2v-16.16c0-.7-.5-1.2-1.2-1.2h-2.19c-.7,0-1.2.5-1.2,1.2v7.48h.1Z"/>
  </g>
  <g>
    <path class="cls-1" d="m188.94,34.7l-4.89-8.88c-.1-.2-.4-.4-.7-.4h-1.7c-.3,0-.6.1-.7.4l-4.99,9.08q-.1.1-.1.2c0,.1.1.2.1.2q.1.1.3.1h1.5c.3,0,.6-.1.7-.4l3.89-7.18.1-.1.1.1,3.89,7.18c.1.2.4.4.7.4h1.8l.1-.1v-.1c.1,0,0-.3-.1-.5Z"/>
    <path class="cls-1" d="m228.84,26.42h0c-1.2-.9-2.69-1.4-4.39-1.4s-3.19.4-4.39,1.4c-1.4,1-2.09,2.39-2.09,3.99h0c0,1.7.7,2.99,2.09,4.09,1.2.9,2.69,1.3,4.39,1.3h0c1.7,0,3.29-.4,4.39-1.3,1.4-1,2.09-2.39,2.09-4.09h0c0-1.6-.7-2.99-2.09-3.99Zm-1.4,6.28c-.7.6-1.7.9-2.99.9s-2.29-.3-2.99-.9-1.1-1.3-1.1-2.19.4-1.6,1.2-2.19,1.7-.9,2.99-.9c1.2,0,2.19.3,2.99.9s1.1,1.3,1.2,2.19c-.2.8-.6,1.5-1.3,2.19Z"/>
    <path class="cls-1" d="m264.65,33.8c0-.3-.2-.5-.5-.5h-6.58c-.1,0-.3-.1-.3-.3v-7.08c0-.3-.2-.5-.5-.5h-1.3c-.3,0-.5.2-.5.5v9.08c0,.3.2.5.5.5h8.68c.6,0,.5-.6.5-.6v-1.1h0Z"/>
    <path class="cls-1" d="m275.92,34.9v-1.2c0-.3-.2-.5-.5-.5h-6.58c-.1,0-.3-.1-.3-.3v-7.08c0-.3-.2-.5-.5-.5h-1.3c-.3,0-.5.2-.5.5v9.08c0,.3.2.5.5.5h8.68c.6,0,.5-.5.5-.5Z"/>
    <path class="cls-1" d="m193.42,28.12c.7-.6,1.8-.9,3.09-.9,1.5,0,2.69.4,3.69,1.4h0s.1.1.3.1h.1l1.6-.6c.1-.1.2-.2.2-.3s-.1-.2-.1-.2c-1.5-1.7-3.49-2.59-5.89-2.59h0c-1.7,0-3.19.4-4.39,1.3-1.4,1-2.09,2.39-2.09,3.99h0c0,1.5.7,2.79,1.9,3.79s2.79,1.4,4.79,1.4h0c2.29,0,4.29-.8,5.69-2.49l.1-.1c0-.1-.1-.2-.1-.2h0l-1.5-.8c-.1,0-.1-.1-.1-.1-.1,0-.2.1-.2.1-.9.9-2.19,1.4-3.69,1.4-1.4,0-2.39-.3-3.09-.9-.7-.6-1.1-1.3-1.1-2.19-.3-.8.1-1.5.8-2.09Z"/>
    <path class="cls-1" d="m215.97,34.7l-.9-1.4-1.2-1.7c1.4-.4,2.19-1.5,2.19-2.99h0c0-.9-.4-1.8-1-2.39-.7-.6-1.5-.9-2.59-.9h-7.48c-.3,0-.5.2-.5.5v9.08c0,.3.2.5.5.5h1.3c.3,0,.5-.2.5-.5v-7.08c0-.1.1-.3.2-.3h4.99c.6,0,.9.1,1.2.3.2.1.4.4.4.9,0,.4-.1.7-.4.8s-.6.3-1.2.3l-2.49.1,3.69,5.19c.1.2.4.4.7.4h2q.1,0,.1-.1l.1-.1v-.1c.2-.1.1-.3-.1-.5Z"/>
    <path class="cls-1" d="m173.77,23.63h-1.7c-.3,0-.6.1-.7.4l-4.89,6.18-.1.1q-.1,0-.1-.1l-4.89-6.18c-.1-.2-.5-.4-.7-.4h-1.7c-.3,0-.5.3-.5.6v10.67c0,.3.2.5.5.5h1.3c.3,0,.5-.2.5-.5v-8.28l3.89,4.89c.1.2.5.4.7.4h2c.3,0,.6-.1.7-.4l3.89-4.89v8.28c0,.3.2.5.5.5h1.3c.3,0,.5-.2.5-.5v-10.67c0-.3-.2-.6-.5-.6Z"/>
    <path class="cls-1" d="m246.5,25.42h-2.19c-.3,0-.6.1-.7.4l-3.39,4.69-.1.1s-.1,0-.1-.1l-3.39-4.69c-.1-.2-.4-.4-.7-.4h-2.19c-.3,0-.5.2-.5.5v9.08c0,.3.2.5.5.5h1.3c.3,0,.5-.2.5-.5v-6.98l2.99,4.09c.1.2.4.4.7.4h1.8c.3,0,.6-.1.7-.4l2.99-4.09v6.98c0,.3.2.5.5.5h1.3c.3,0,.5-.2.5-.5v-9.08c.1-.3-.2-.5-.5-.5Z"/>
    <path class="cls-1" d="m251.68,25.42h-1.3c-.3,0-.5.2-.5.5v9.08c0,.3.2.5.5.5h1.3c.3,0,.5-.2.5-.5v-9.08c0-.3-.2-.5-.5-.5Z"/>
    <path class="cls-1" d="m192.63,39.89h-1.3c-.3,0-.5.2-.5.5v9.08c0,.3.2.5.5.5h1.3c.3,0,.5-.2.5-.5v-8.98c0-.3-.3-.6-.5-.6Z"/>
    <path class="cls-1" d="m170.48,10.86c-1.2-1.1-2.79-1.7-4.79-1.7h-6.98c-.2,0-.4.2-.4.4v10.87c0,.3.2.4.4.4h7.18c1.7,0,3.19-.5,4.29-1.6,1.2-1.1,1.9-2.49,1.9-4.19.2-1.6-.4-3.09-1.6-4.19Zm-4.29,7.98h-5.59v-7.48h5.19c1.2,0,2.19.4,2.89,1.1.7.7,1.1,1.6,1.1,2.79,0,1.1-.4,2-1,2.59s-1.6,1-2.59,1Z"/>
    <path class="cls-1" d="m184.95,18.84h-7.98v-2h5.09c.3,0,.4-.2.4-.4v-1.3c0-.3-.2-.4-.4-.4h-5.09v-1.7h7.58c.3,0,.5-.2.5-.4v-1.3c0-.3-.2-.4-.4-.4h-9.58c-.3,0-.4.2-.4.4v9.08c0,.3.2.4.4.4h9.88c.3,0,.4-.2.4-.4v-1.2c.1-.2-.1-.4-.4-.4Z"/>
    <path class="cls-1" d="m198.51,10.96h-1.4c-.3,0-.5.1-.5.4v7.18l-5.99-7.48c-.1-.1-.2-.1-.4-.1h-2.49c-.3,0-.4.2-.4.4v9.08c0,.3.2.4.4.4h1.4c.3,0,.4-.2.4-.4v-6.98l6.09,7.38c.1.1.2.1.4.1h2.49c.3,0,.4-.2.4-.4v-9.18c0-.3-.2-.4-.4-.4Z"/>
    <path class="cls-1" d="m211.48,10.96h-10.57c-.3,0-.4.2-.4.4v1.2c0,.3.2.4.4.4h4.09v7.48c0,.3.2.4.4.4h1.4c.3,0,.4-.2.4-.4v-7.38h4.09c.3,0,.4-.2.4-.4v-1.3c.3-.3.1-.4-.2-.4Z"/>
    <path class="cls-1" d="m223.15,15.55c-.7-.4-1.8-.7-3.49-.9-1.1-.1-2.19-.2-3.29-.3-1-.2-1-.6-1-.7,0-.8,1.9-.9,2.99-.9,1.4,0,2.59.3,3.79.9.2.1.4.1.6-.1l.9-.9c.1-.1.1-.2.1-.4s-.1-.3-.2-.4c-1.4-.9-3.19-1.3-5.19-1.3-1.7,0-2.99.3-3.89.9s-1.4,1.4-1.4,2.39c0,.9.3,1.5.9,2,.6.4,1.5.7,2.79.8.3,0,1.1.1,2.49.1,1,.1,1.6.1,1.8.2.9.3.9.7.9.9s0,.5-.7.9c-.6.3-1.4.4-2.39.4-1.8,0-3.29-.4-4.59-1.2-.2-.1-.5-.1-.7.1l-.7.9c-.1.1-.1.2-.1.4,0,.1.1.2.2.3,1.5,1.1,3.49,1.6,5.89,1.6,1.8,0,3.19-.3,4.09-.9,1-.6,1.5-1.4,1.5-2.59-.1-1-.5-1.7-1.3-2.19Z"/>
    <path class="cls-1" d="m237.22,10.96h-1.4c-.3,0-.4.2-.4.4v5.79c0,.4,0,1.9-3.49,1.9s-3.49-1.4-3.49-1.9v-5.79c0-.3-.2-.4-.4-.4h-1.4c-.3,0-.4.2-.4.4v6.18c0,1.1.6,2,1.6,2.69s2.49,1,4.19,1,3.09-.4,4.19-1c1.1-.7,1.6-1.6,1.6-2.69v-6.18c-.1-.3-.4-.4-.6-.4Z"/>
    <path class="cls-1" d="m160.21,38.19h-1.4c-.3,0-.4.2-.4.4v10.87c0,.3.2.4.4.4h1.4c.3,0,.4-.2.4-.4v-10.87c0-.2-.2-.4-.4-.4Z"/>
    <path class="cls-1" d="m174.87,39.89h-1.4c-.3,0-.4.2-.4.4v7.18l-6.09-7.38c-.1-.1-.2-.1-.4-.1h-2.49c-.3,0-.4.2-.4.4v9.08c0,.3.2.4.4.4h1.4c.3,0,.4-.2.4-.4v-7.18l6.09,7.48c.1.1.2.1.4.1h2.49c.3,0,.4-.2.4-.4v-9.08c0-.3-.2-.5-.4-.5Z"/>
    <path class="cls-1" d="m187.74,44.48c-.7-.4-1.8-.7-3.49-.9-1.1-.1-2.19-.2-3.29-.3-1-.2-1-.6-1-.7,0-.8,1.9-.9,2.99-.9,1.4,0,2.59.3,3.79.9.2.1.4.1.6-.1l.9-.9c.1-.1.1-.2.1-.4,0-.1-.1-.3-.2-.4-1.4-.9-2.99-1.3-5.09-1.3-1.7,0-2.99.3-3.89.9s-1.4,1.4-1.4,2.39c0,.9.3,1.5.9,2,.6.4,1.5.7,2.79.8.3,0,1.1.1,2.49.1,1,.1,1.6.1,1.8.2.6.1.9.4.9.9,0,.1,0,.5-.7.9-.6.3-1.4.4-2.39.4-1.8,0-3.29-.4-4.59-1.2-.2-.1-.5-.1-.7.1l-.7.9c-.1.1-.1.2-.1.4,0,.1.1.2.2.3,1.5,1.1,3.49,1.6,5.89,1.6,1.8,0,3.19-.3,4.09-.9,1-.6,1.5-1.4,1.5-2.59-.2-1-.6-1.7-1.4-2.19Z"/>
    <path class="cls-1" d="m207.69,44.28h-6.09c-.3,0-.4.2-.4.4v1.2c0,.3.2.4.4.4h3.59c-.7,1.2-1.8,1.7-3.49,1.7-1.2,0-2.19-.3-2.99-.9-.7-.6-1.1-1.3-1.1-2.19s.4-1.7,1.2-2.19,1.7-.9,2.99-.9,2.39.4,3.29,1.2c.1.1.4.1.5.1l1.3-.7c.1-.1.2-.2.2-.4,0-.1,0-.3-.1-.4-1.4-1.4-3.09-2-5.09-2-1.8,0-3.29.4-4.49,1.3-1.4,1-2.09,2.29-2.09,3.99s.7,2.99,2.09,3.99c1.2.9,2.59,1.3,4.29,1.3,1.9,0,3.49-.5,4.59-1.5,1.2-1,1.7-2.29,1.7-3.89v-.1c.2-.2,0-.4-.3-.4Z"/>
    <path class="cls-1" d="m221.66,39.89h-1.4c-.3,0-.4.2-.4.4v3.29h-6.98v-3.29c0-.3-.2-.4-.4-.4h-1.4c-.3,0-.4.2-.4.4v9.08c0,.3.2.4.4.4h1.4c.3,0,.4-.2.4-.4v-3.69h6.98v3.69c0,.3.2.4.4.4h1.4c.3,0,.4-.2.4-.4v-9.08c.1-.2-.1-.4-.4-.4Z"/>
    <path class="cls-1" d="m234.72,39.89h-10.57c-.3,0-.4.2-.4.4v1.2c0,.3.2.4.4.4h4.09v7.48c0,.3.2.4.4.4h1.4c.3,0,.4-.2.4-.4v-7.38h4.09c.3,0,.4-.2.4-.4v-1.2c.2-.3.1-.5-.2-.5Z"/>
  </g>
</svg>